<?xml version="1.0" encoding="UTF-8" standalone="no"?> <svg width="512" height="512" viewBox="0 0 512 512" fill="none" xmlns="http://www.w3.org/2000/svg">
<path d="M242.769 368.492C242.026 369.235 241.144 369.824 240.174 370.226C239.203 370.628 238.163 370.835 237.112 370.835C236.062 370.835 235.021 370.629 234.051 370.227C233.08 369.825 232.198 369.235 231.455 368.493C230.712 367.75 230.123 366.868 229.721 365.897C229.318 364.927 229.111 363.886 229.111 362.836C229.111 361.785 229.318 360.745 229.72 359.774C230.122 358.804 230.711 357.922 231.454 357.179L251.009 337.624L150.323 236.938L130.769 256.492C130.026 257.235 129.144 257.824 128.174 258.226C127.203 258.628 126.163 258.835 125.112 258.835C122.99 258.836 120.956 257.993 119.455 256.493C118.712 255.75 118.123 254.868 117.721 253.897C117.318 252.927 117.111 251.886 117.111 250.836C117.111 248.714 117.954 246.679 119.454 245.179L139.009 225.624L94.1711 180.786C70.2871 215.41 57.5911 255.977 58.2821 295.994C59.0261 339.085 75.3731 378.753 104.311 407.694C133.05 436.43 172.43 452.771 215.2 453.7C255.44 454.572 296.356 441.874 331.216 417.827L262.326 348.936L242.769 368.492ZM115.024 275.22L109.657 280.587C108.157 282.087 106.122 282.93 104 282.93C101.878 282.93 99.8434 282.087 98.3431 280.587C96.8427 279.086 95.9998 277.051 95.9998 274.93C95.9998 272.808 96.8427 270.773 98.3431 269.273L103.71 263.906C104.453 263.163 105.335 262.574 106.306 262.171C107.276 261.769 108.316 261.562 109.367 261.562C110.418 261.562 111.458 261.769 112.429 262.171C113.399 262.574 114.281 263.163 115.024 263.906C115.767 264.649 116.356 265.531 116.758 266.501C117.16 267.472 117.367 268.512 117.367 269.563C117.367 270.613 117.16 271.654 116.758 272.624C116.356 273.595 115.767 274.477 115.024 275.22V275.22ZM146.343 322.343L171.781 296.9C173.282 295.399 175.318 294.555 177.44 294.555C179.563 294.555 181.599 295.398 183.1 296.899C184.601 298.4 185.444 300.436 185.444 302.558C185.444 304.681 184.601 306.717 183.1 308.218L157.661 333.657C156.918 334.4 156.036 334.989 155.066 335.391C154.095 335.793 153.055 336 152.004 336C150.953 336 149.913 335.793 148.943 335.391C147.972 334.989 147.09 334.4 146.347 333.657C145.604 332.914 145.015 332.032 144.613 331.061C144.211 330.091 144.004 329.05 144.004 328C144.004 326.949 144.211 325.909 144.613 324.938C145.015 323.967 145.604 323.086 146.347 322.343H146.343ZM205.6 338.727L156.162 388.165C155.421 388.915 154.539 389.511 153.566 389.919C152.594 390.327 151.55 390.539 150.495 390.542C149.441 390.546 148.396 390.34 147.421 389.938C146.446 389.536 145.56 388.945 144.814 388.2C144.068 387.454 143.477 386.568 143.075 385.593C142.673 384.618 142.468 383.573 142.471 382.519C142.474 381.464 142.686 380.42 143.094 379.448C143.502 378.475 144.098 377.593 144.848 376.852L194.286 327.413C195.029 326.67 195.911 326.08 196.882 325.678C197.852 325.276 198.892 325.069 199.943 325.069C200.994 325.069 202.034 325.276 203.005 325.678C203.975 326.08 204.857 326.67 205.6 327.413C206.343 328.156 206.932 329.037 207.334 330.008C207.736 330.979 207.943 332.019 207.943 333.07C207.943 334.12 207.736 335.161 207.334 336.131C206.932 337.102 206.343 337.984 205.6 338.727V338.727ZM227.02 387.22L221.653 392.587C220.91 393.33 220.028 393.919 219.058 394.321C218.087 394.723 217.047 394.93 215.996 394.93C214.945 394.93 213.905 394.723 212.934 394.321C211.964 393.919 211.082 393.33 210.339 392.587C209.596 391.844 209.007 390.962 208.605 389.991C208.203 389.021 207.996 387.98 207.996 386.93C207.996 385.879 208.203 384.839 208.605 383.868C209.007 382.897 209.596 382.016 210.339 381.273L215.706 375.906C216.449 375.163 217.331 374.573 218.301 374.171C219.272 373.769 220.312 373.562 221.363 373.562C222.414 373.562 223.454 373.769 224.425 374.171C225.395 374.573 226.277 375.163 227.02 375.906C227.763 376.649 228.352 377.53 228.754 378.501C229.156 379.472 229.363 380.512 229.363 381.563C229.363 382.613 229.156 383.654 228.754 384.624C228.352 385.595 227.763 386.477 227.02 387.22V387.22ZM333.231 207.508C333.974 206.765 334.856 206.175 335.826 205.773C336.797 205.371 337.837 205.164 338.888 205.164C339.938 205.164 340.979 205.371 341.949 205.773C342.92 206.175 343.802 206.764 344.545 207.507C345.288 208.25 345.877 209.131 346.28 210.102C346.682 211.073 346.889 212.113 346.889 213.163C346.889 214.214 346.682 215.254 346.28 216.225C345.878 217.196 345.289 218.078 344.546 218.821L324.83 238.537L408.222 321.929C420.559 291.094 424.85 258.548 420.632 227.169C415.876 191.789 400.489 160.215 376.137 135.863C351.824 111.55 320.307 96.1707 284.992 91.3897C253.573 87.1347 220.961 91.4167 190.069 103.776L313.516 227.223L333.231 207.508ZM348.976 188.78L354.343 183.413C355.086 182.67 355.968 182.08 356.939 181.678C357.909 181.276 358.949 181.069 360 181.069C361.051 181.069 362.091 181.276 363.062 181.678C364.032 182.08 364.914 182.67 365.657 183.413C366.4 184.156 366.989 185.038 367.391 186.008C367.793 186.979 368 188.019 368 189.07C368 190.12 367.793 191.161 367.391 192.131C366.989 193.102 366.4 193.984 365.657 194.727L360.29 200.094C358.79 201.594 356.755 202.437 354.633 202.437C352.511 202.437 350.476 201.594 348.976 200.094C347.476 198.593 346.633 196.558 346.633 194.437C346.633 192.315 347.476 190.28 348.976 188.78V188.78ZM83.1461 114.931C75.4101 107.196 66.7556 100.439 57.3761 94.8097C49.3686 90.018 42.4393 83.6212 37.0241 76.0217C33.1936 70.659 31.3897 64.1115 31.9333 57.5438C32.4768 50.9761 35.3326 44.8141 39.9926 40.1542C44.6525 35.4942 50.8144 32.6385 57.3821 32.0949C63.9498 31.5513 70.4974 33.3552 75.8601 37.1857C83.4601 42.5996 89.857 49.5283 94.6481 57.5357C100.278 66.916 107.035 75.5711 114.77 83.3077L119.847 88.3857L88.2241 120.009L83.1461 114.931ZM471.684 471.846C467.033 476.521 460.869 479.387 454.297 479.931C447.725 480.475 441.173 478.661 435.817 474.814C428.217 469.399 421.82 462.47 417.029 454.463C411.4 445.083 404.642 436.428 396.907 428.692L392.046 423.831L423.67 392.208L428.53 397.068C436.266 404.802 444.92 411.56 454.3 417.19C462.307 421.981 469.236 428.378 474.65 435.978C478.498 441.334 480.313 447.885 479.77 454.458C479.226 461.03 476.36 467.195 471.684 471.846V471.846ZM427.405 363.74L148.314 84.6497C148.035 84.3719 147.658 84.216 147.264 84.216C146.87 84.216 146.493 84.3719 146.214 84.6497L93.8861 136.974V136.979H93.8811L84.493 146.367C84.2158 146.646 84.0602 147.023 84.0602 147.417C84.0602 147.81 84.2158 148.188 84.493 148.467L175.444 239.418L196.622 218.24C198.122 216.739 200.157 215.896 202.279 215.896C204.401 215.896 206.436 216.738 207.936 218.239C209.437 219.739 210.28 221.774 210.28 223.895C210.28 226.017 209.437 228.052 207.937 229.553L186.758 250.732L363.578 427.566C363.857 427.844 364.236 428.001 364.631 428.001C365.025 428.001 365.404 427.844 365.683 427.566L427.405 365.844C427.683 365.564 427.839 365.186 427.839 364.792C427.839 364.397 427.683 364.019 427.405 363.74ZM234.769 202.727L229.401 208.094C228.658 208.837 227.776 209.426 226.806 209.828C225.835 210.23 224.795 210.437 223.744 210.437C222.693 210.437 221.653 210.23 220.682 209.828C219.712 209.426 218.83 208.837 218.087 208.094C217.344 207.351 216.755 206.469 216.353 205.498C215.951 204.528 215.744 203.487 215.744 202.437C215.744 201.386 215.951 200.346 216.353 199.375C216.755 198.405 217.344 197.523 218.087 196.78L223.454 191.413C224.954 189.912 226.989 189.069 229.111 189.069C231.233 189.069 233.268 189.912 234.769 191.412C236.269 192.913 237.112 194.947 237.112 197.069C237.112 199.191 236.269 201.226 234.769 202.727V202.727Z" fill="url(#paint0_linear_15_40947)"/>
<defs>
<linearGradient id="paint0_linear_15_40947" x1="104.229" y1="407.609" x2="376.056" y2="135.782" gradientUnits="userSpaceOnUse">
<stop stop-color="#41DFD0"/>
<stop offset="1" stop-color="#EE83EF"/>
</linearGradient>
</defs>
</svg>
