<?xml version="1.0" encoding="UTF-8" standalone="no"?> <svg width="64" height="64" viewBox="0 0 64 64" fill="none" xmlns="http://www.w3.org/2000/svg">
<path d="M57.77 23.3399C57.77 17.1699 52.46 12.1399 45.92 12.1399C45.1719 12.1435 44.4256 12.2138 43.69 12.3499C43.143 9.67008 41.6738 7.26683 39.5378 5.55844C37.4019 3.85006 34.7345 2.9447 32 2.99995C29.2673 2.94621 26.6021 3.85087 24.4667 5.55694C22.3314 7.26302 20.8608 9.66283 20.31 12.3399C19.574 12.2076 18.8278 12.1407 18.08 12.1399C11.54 12.1399 6.22998 17.1399 6.22998 23.3399C6.30337 26.1579 7.41282 28.85 9.34621 30.9015C11.2796 32.9529 13.9013 34.2198 16.71 34.4599L14.71 59.9199C14.6984 60.0577 14.7156 60.1964 14.7603 60.3272C14.8051 60.458 14.8765 60.5781 14.97 60.6799C15.0632 60.7805 15.1761 60.8608 15.3017 60.9158C15.4273 60.9709 15.5629 60.9995 15.7 60.9999H48.34C48.4771 60.9995 48.6127 60.9709 48.7382 60.9158C48.8638 60.8608 48.9767 60.7805 49.07 60.6799C49.1635 60.5781 49.2349 60.458 49.2796 60.3272C49.3244 60.1964 49.3415 60.0577 49.33 59.9199L47.33 34.4599C50.1315 34.2105 52.7435 32.9396 54.6686 30.8891C56.5938 28.8385 57.6976 26.1516 57.77 23.3399V23.3399ZM42.45 48.5599C42.1848 48.5599 41.9304 48.6653 41.7429 48.8528C41.5553 49.0404 41.45 49.2947 41.45 49.5599V53.4899H38.23V46.3799C38.23 46.1147 38.1246 45.8604 37.9371 45.6728C37.7496 45.4853 37.4952 45.3799 37.23 45.3799C36.9648 45.3799 36.7104 45.4853 36.5229 45.6728C36.3353 45.8604 36.23 46.1147 36.23 46.3799V53.4899H33V49.5599C33 49.2947 32.8946 49.0404 32.7071 48.8528C32.5196 48.6653 32.2652 48.5599 32 48.5599C31.7348 48.5599 31.4804 48.6653 31.2929 48.8528C31.1053 49.0404 31 49.2947 31 49.5599V53.4899H27.78V46.3799C27.78 46.1147 27.6746 45.8604 27.4871 45.6728C27.2996 45.4853 27.0452 45.3799 26.78 45.3799C26.5148 45.3799 26.2604 45.4853 26.0729 45.6728C25.8853 45.8604 25.78 46.1147 25.78 46.3799V53.4899H22.55V49.5599C22.55 49.2947 22.4446 49.0404 22.2571 48.8528C22.0696 48.6653 21.8152 48.5599 21.55 48.5599C21.2848 48.5599 21.0304 48.6653 20.8429 48.8528C20.6553 49.0404 20.55 49.2947 20.55 49.5599V53.4899H17.19L18.71 34.4899H45.29L46.81 53.4899H43.45V49.5599C43.45 49.2947 43.3446 49.0404 43.1571 48.8528C42.9696 48.6653 42.7152 48.5599 42.45 48.5599ZM16.75 58.9999L17 55.4899H47L47.25 58.9999H16.75ZM46 32.5399H24.79C26.2012 31.6331 27.3933 30.424 28.28 28.9999C28.3777 28.8896 28.4499 28.7591 28.4913 28.6176C28.5327 28.4761 28.5423 28.3273 28.5195 28.1817C28.4966 28.036 28.4419 27.8973 28.3591 27.7753C28.2764 27.6533 28.1677 27.5511 28.0408 27.4761C27.914 27.401 27.7721 27.3549 27.6253 27.3411C27.4786 27.3273 27.3306 27.3461 27.192 27.3961C27.0533 27.4462 26.9275 27.5263 26.8234 27.6307C26.7193 27.7351 26.6396 27.8612 26.59 27.9999C25.6772 29.4079 24.4248 30.5636 22.9481 31.3605C21.4714 32.1574 19.8179 32.5699 18.14 32.5599H18.06C12.64 32.5599 8.22998 28.4299 8.22998 23.3599C8.22998 18.2899 12.65 14.1599 18.08 14.1599C18.9946 14.1592 19.9055 14.2768 20.79 14.5099C20.9009 14.5575 21.0194 14.5846 21.14 14.5899C21.3951 14.5904 21.6408 14.4933 21.8267 14.3186C22.0126 14.1438 22.1247 13.9046 22.14 13.6499C22.48 8.78994 26.8 4.99994 32 4.99994C34.2965 4.94216 36.5384 5.70469 38.3234 7.15068C40.1085 8.59667 41.3198 10.6315 41.74 12.8899C39.8681 13.5402 38.1899 14.6509 36.86 16.1199C36.6836 16.3189 36.5935 16.5797 36.6094 16.845C36.6254 17.1104 36.7461 17.3586 36.945 17.5349C37.1439 17.7113 37.4047 17.8014 37.6701 17.7855C37.9354 17.7696 38.1836 17.6489 38.36 17.4499C39.6243 16.0365 41.2704 15.019 43.1 14.5199C44.0185 14.2664 44.9671 14.1386 45.92 14.1399C51.35 14.1399 55.77 18.2699 55.77 23.3399C55.77 28.4099 51.4 32.4999 46 32.5399Z" fill="url(#paint0_linear_127:8118)"/>
<defs>
<linearGradient id="paint0_linear_127:8118" x1="6.22998" y1="31.9999" x2="57.77" y2="31.9999" gradientUnits="userSpaceOnUse">
<stop stop-color="#FCD702"/>
<stop offset="0.18" stop-color="#F8B802"/>
<stop offset="0.57" stop-color="#F17901"/>
<stop offset="0.85" stop-color="#EC5101"/>
<stop offset="1" stop-color="#EA4201"/>
</linearGradient>
</defs>
</svg>
