<?xml version="1.0" encoding="UTF-8" standalone="no"?>
<!-- Generator: Adobe Illustrator 18.0.0, SVG Export Plug-In . SVG Version: 6.00 Build 0)  -->

<svg
   version="1.1"
   id="Layer_1"
   x="0px"
   y="0px"
   viewBox="0 0 61.5 62"
   enable-background="new 0 0 61.5 62"
   xml:space="preserve"
   sodipodi:docname="food.svg"
   inkscape:version="1.1.1 (3bf5ae0d25, 2021-09-20)"
   xmlns:inkscape="http://www.inkscape.org/namespaces/inkscape"
   xmlns:sodipodi="http://sodipodi.sourceforge.net/DTD/sodipodi-0.dtd"
   xmlns="http://www.w3.org/2000/svg"
   xmlns:svg="http://www.w3.org/2000/svg"><defs
   id="defs17" /><sodipodi:namedview
   id="namedview15"
   pagecolor="#ffffff"
   bordercolor="#666666"
   borderopacity="1.0"
   inkscape:pageshadow="2"
   inkscape:pageopacity="0.0"
   inkscape:pagecheckerboard="0"
   showgrid="false"
   inkscape:zoom="10.580645"
   inkscape:cx="30.716463"
   inkscape:cy="30.952744"
   inkscape:window-width="2560"
   inkscape:window-height="1017"
   inkscape:window-x="1358"
   inkscape:window-y="-8"
   inkscape:window-maximized="1"
   inkscape:current-layer="Layer_1" />
<g
   id="g12">
	<path
   d="M20.5,14.9c-0.1-0.1-0.1-0.1-0.2-0.2c-0.5-0.5-0.7-0.7-0.7-1.1c0-0.5,0.2-0.6,0.7-1.1c0.2-0.2,0.5-0.5,0.7-0.7   c0.3-0.4,0.3-0.9-0.1-1.2c-0.4-0.3-0.9-0.3-1.2,0.1c-0.2,0.2-0.4,0.4-0.6,0.6c-0.6,0.6-1.2,1.2-1.2,2.4c0,1.2,0.6,1.8,1.2,2.4   c0.1,0.1,0.1,0.1,0.2,0.2c0.6,0.5,1,0.9,1,1.8c0,1-0.5,1.6-1.1,2.2c-0.1,0.1-0.1,0.1-0.2,0.2c-0.3,0.4-0.3,0.9,0.1,1.2   c0.2,0.1,0.4,0.2,0.6,0.2c0.2,0,0.5-0.1,0.7-0.3c0.1-0.1,0.1-0.1,0.2-0.2c0.7-0.7,1.6-1.7,1.6-3.4C22.1,16.3,21.2,15.5,20.5,14.9   L20.5,14.9z M20.5,14.9"
   id="path2" />
	<path
   d="M32.7,11c-0.1-0.1-0.1-0.1-0.2-0.2c-0.5-0.5-0.7-0.7-0.7-1.1c0-0.5,0.2-0.6,0.7-1.1c0.2-0.2,0.5-0.5,0.7-0.7   c0.3-0.4,0.3-0.9-0.1-1.2c-0.4-0.3-0.9-0.3-1.2,0.1c-0.2,0.2-0.4,0.4-0.6,0.6c-0.6,0.6-1.2,1.2-1.2,2.4c0,1.2,0.6,1.8,1.2,2.4   c0.1,0.1,0.1,0.1,0.2,0.2c0.6,0.5,1,0.9,1,1.8c0,1-0.5,1.6-1.1,2.2c-0.1,0.1-0.1,0.1-0.2,0.2c-0.3,0.4-0.3,0.9,0.1,1.2   c0.2,0.1,0.4,0.2,0.6,0.2c0.2,0,0.5-0.1,0.7-0.3c0.1-0.1,0.1-0.1,0.2-0.2c0.7-0.7,1.6-1.7,1.6-3.4C34.3,12.4,33.4,11.6,32.7,11   L32.7,11z M32.7,11"
   id="path4" />
	<path
   d="M45,14.9c-0.1-0.1-0.1-0.1-0.2-0.2c-0.5-0.5-0.7-0.7-0.7-1.1c0-0.5,0.2-0.6,0.7-1.1c0.2-0.2,0.5-0.5,0.7-0.7   c0.3-0.4,0.3-0.9-0.1-1.2c-0.4-0.3-0.9-0.3-1.2,0.1c-0.2,0.2-0.4,0.4-0.6,0.6c-0.6,0.6-1.2,1.2-1.2,2.4c0,1.2,0.6,1.8,1.2,2.4   c0.1,0.1,0.1,0.1,0.2,0.2c0.6,0.5,1,0.9,1,1.8c0,1-0.5,1.6-1.1,2.2c-0.1,0.1-0.1,0.1-0.2,0.2c-0.3,0.4-0.3,0.9,0.1,1.2   c0.2,0.1,0.4,0.2,0.6,0.2c0.2,0,0.5-0.1,0.7-0.3c0.1-0.1,0.1-0.1,0.2-0.2c0.7-0.7,1.6-1.7,1.6-3.4C46.5,16.3,45.6,15.5,45,14.9   L45,14.9z M45,14.9"
   id="path6" />
	<path
   d="M60.8,51.3H3.6c-0.5,0-0.9,0.4-0.9,0.9v2.1c0,2.3,1.9,4.2,4.2,4.2h50.6c2.3,0,4.2-1.9,4.2-4.2v-2.1   C61.7,51.7,61.3,51.3,60.8,51.3L60.8,51.3z M59.9,54.3c0,1.4-1.1,2.5-2.5,2.5H6.9c-1.4,0-2.5-1.1-2.5-2.5v-1.2h55.5V54.3z    M59.9,54.3"
   id="path8" />
	<path
   d="M48.1,32.5c-3.5-3.4-8-5.5-12.7-6.2l1.7-1.7c0.5-0.5,0.7-1.3,0.4-2c-0.3-0.7-0.9-1.1-1.7-1.1h-7.2c-0.7,0-1.4,0.4-1.7,1.1   c-0.3,0.7-0.1,1.4,0.4,2l1.7,1.7c-4.8,0.7-9.2,2.8-12.8,6.2c-4.3,4.1-6.8,9.7-7,15.6c0,0.5,0.4,0.9,0.8,0.9c0,0,0,0,0,0   c0.5,0,0.9-0.4,0.9-0.8c0.2-5.5,2.5-10.6,6.5-14.4c3.7-3.6,8.5-5.6,13.5-5.9c0.1,0,0.2,0,0.3,0c0.1,0,0.2,0,0.3,0   c0.1,0,0.1,0,0.2,0c0.1,0,0.3,0,0.4,0c0.1,0,0.3,0,0.4,0c0.1,0,0.1,0,0.2,0c0.1,0,0.2,0,0.3,0c0.1,0,0.2,0,0.3,0   c5.1,0.3,9.8,2.3,13.5,5.9c4,3.8,6.3,8.9,6.5,14.4c0,0.5,0.4,0.9,0.9,0.8c0.5,0,0.9-0.4,0.8-0.9C54.9,42.1,52.4,36.6,48.1,32.5   L48.1,32.5z M33.1,26.1c0,0-0.1,0-0.1,0c-0.1,0-0.2,0-0.3,0c-0.2,0-0.3,0-0.5,0c0,0,0,0,0,0c0,0,0,0,0,0c-0.2,0-0.3,0-0.5,0   c-0.1,0-0.2,0-0.3,0c0,0-0.1,0-0.1,0l-2.7-2.7c0,0,0,0,0,0c0,0,0,0,0,0h7.2c0,0,0,0,0,0c0,0,0,0,0,0L33.1,26.1z M33.1,26.1"
   id="path10" />
</g>
<path
   style="fill:#337abe;fill-rule:evenodd;stroke:#337abe;stroke-width:0.2"
   d="m 53.796868,48.903233 c -0.3146,-0.12288 -0.45929,-0.576603 -0.52583,-1.648918 -0.246653,-3.974896 -1.939958,-8.227549 -4.571637,-11.481449 -0.846738,-1.046936 -2.868442,-2.987335 -3.948523,-3.789729 -3.476282,-2.582535 -7.485053,-3.969901 -11.90789,-4.121116 -5.829548,-0.199309 -11.249684,1.861106 -15.414515,5.859688 -3.097506,2.973862 -5.069349,6.38326 -6.023849,10.415486 -0.267601,1.130464 -0.535722,2.997684 -0.535722,3.730821 0,0.902849 -0.806626,1.378157 -1.3747224,0.81006 C 9.2083125,48.39221 9.1912994,47.877087 9.4108242,46.15425 10.212666,39.861375 13.435757,34.400468 18.593269,30.596366 c 2.677061,-1.974558 6.468157,-3.60198 9.524109,-4.088459 0.363872,-0.05793 0.721483,-0.12478 0.79469,-0.148566 0.08752,-0.02844 -0.175224,-0.357873 -0.767223,-0.961964 -0.49518,-0.505295 -0.991014,-1.097779 -1.101854,-1.31663 -0.540123,-1.066463 0.04894,-2.232587 1.254172,-2.482792 0.356364,-0.07398 1.699956,-0.09897 4.235109,-0.07877 3.416716,0.02723 3.741876,0.04386 4.072911,0.208288 0.736047,0.365607 1.128766,1.233007 0.911889,2.014093 -0.104654,0.376914 -0.300421,0.632449 -1.158577,1.512289 -0.937837,0.961533 -1.012125,1.062909 -0.809137,1.104179 2.970425,0.603922 4.527734,1.097924 6.562303,2.081663 2.395178,1.158098 4.076508,2.329597 5.978093,4.165353 4.120872,3.978218 6.453593,8.953636 6.808661,14.522076 0.04098,0.642731 0.04148,1.261709 0.0011,1.375508 -0.119726,0.337473 -0.71271,0.552905 -1.102657,0.400595 z M 34.496951,24.762195 35.864933,23.391768 h -3.683531 -3.68353 l 1.367982,1.370427 1.367981,1.370427 h 0.947567 0.947567 z"
   id="path871" /><path
   style="fill:#337abe;fill-rule:evenodd;stroke:#337abe;stroke-width:0.2"
   d="m 31.320311,17.688738 c -0.412073,-0.35445 -0.350961,-0.696233 0.241844,-1.352565 0.678827,-0.751571 0.947948,-1.342006 0.949117,-2.082307 5.08e-4,-0.321502 -0.04392,-0.702495 -0.09873,-0.846652 C 32.357732,13.263056 31.936318,12.755851 31.476063,12.28009 30.375091,11.142028 30.200397,10.806958 30.198281,9.8292683 30.196181,8.83862 30.4052,8.4145836 31.411887,7.367741 c 0.876634,-0.9116021 1.133669,-0.9974484 1.660129,-0.5544614 0.498742,0.4196643 0.418293,0.6779441 -0.512566,1.6455619 -0.747592,0.7771144 -0.803353,0.8625809 -0.803353,1.2313139 0,0.3754856 0.05201,0.4496356 0.993241,1.4159146 1.321983,1.357169 1.511332,1.748061 1.511332,3.120003 0,0.941441 -0.01726,1.029472 -0.324277,1.653963 -0.215599,0.438543 -0.549259,0.889239 -0.995591,1.344812 -0.591294,0.603535 -0.712552,0.685213 -1.017252,0.685213 -0.226506,0 -0.434769,-0.07641 -0.60324,-0.221323 z"
   id="path910" /><path
   style="fill:#337abe;fill-rule:evenodd;stroke:#337abe;stroke-width:0.2"
   d="m 43.75678,21.66879 c -0.258305,-0.173502 -0.33457,-0.29363 -0.357203,-0.56264 -0.02517,-0.299199 0.03625,-0.414912 0.490377,-0.923865 0.709828,-0.795518 0.908826,-1.236151 0.908826,-2.012375 0,-0.344076 -0.04537,-0.74532 -0.10083,-0.891654 -0.05546,-0.146333 -0.480502,-0.653474 -0.944545,-1.126979 -1.027863,-1.048823 -1.265059,-1.507631 -1.265059,-2.447009 0,-0.93286 0.238108,-1.397718 1.240774,-2.42236 0.91943,-0.939581 1.128028,-1.015575 1.629482,-0.593628 0.49133,0.413427 0.414345,0.679782 -0.460514,1.593299 -1.119504,1.16897 -1.12121,1.405229 -0.01844,2.554117 1.114063,1.160652 1.486215,1.765846 1.700611,2.765542 0.204541,0.953742 -0.204944,2.213718 -1.058118,3.255809 -0.781706,0.954798 -1.239201,1.165162 -1.765361,0.811743 z"
   id="path949" /><path
   style="fill:#337abe;fill-rule:evenodd;stroke:#337abe;stroke-width:0.2"
   d="m 19.325453,21.749784 c -0.329709,-0.146128 -0.552015,-0.55684 -0.459983,-0.849821 0.03486,-0.110986 0.27686,-0.43571 0.537771,-0.721609 0.648647,-0.710772 0.914793,-1.309434 0.915958,-2.060334 0.0012,-0.779239 -0.134712,-1.029477 -1.088325,-2.003691 -1.0387,-1.061138 -1.226301,-1.430218 -1.226301,-2.412584 0,-0.982723 0.205643,-1.38168 1.265479,-2.455081 0.911613,-0.92328 1.150471,-1.000743 1.624413,-0.5268 0.454118,0.454118 0.384946,0.665928 -0.527087,1.613977 -0.730785,0.759644 -0.803354,0.868702 -0.803354,1.207302 0,0.430927 0.389672,1.005076 1.028218,1.514993 0.557057,0.444843 1.113341,1.220328 1.34137,1.869931 0.155975,0.444337 0.188852,0.725572 0.160628,1.37403 -0.04737,1.088427 -0.401683,1.82658 -1.339265,2.790177 -0.718986,0.738936 -0.979321,0.859042 -1.429522,0.65951 z"
   id="path988" /><path
   style="fill:#337abe;fill-rule:evenodd;stroke:#337abe;stroke-width:0.2"
   d="M 5.8620475,58.304281 C 4.4650413,57.928872 3.2506127,56.699973 2.8866239,55.293405 2.7870683,54.908691 2.7408537,54.284634 2.7408537,53.325007 V 51.919911 L 3.0171201,51.643644 3.2933865,51.367378 H 32.2085 61.123614 l 0.249169,0.249169 c 0.248802,0.248802 0.249168,0.251426 0.249168,1.787311 0,1.223429 -0.03525,1.651058 -0.172271,2.090008 -0.434837,1.392988 -1.548495,2.439711 -2.997191,2.817048 -0.493435,0.128524 -3.464044,0.144177 -26.314572,0.138659 C 9.7746501,58.444173 6.3113607,58.425022 5.8620475,58.304281 Z M 58.337961,56.660669 c 0.589555,-0.220581 1.11461,-0.721884 1.386499,-1.323779 0.150265,-0.332648 0.192572,-0.626061 0.194196,-1.346799 l 0.0021,-0.921493 H 32.134146 4.347561 v 0.786199 c 0,1.110696 0.1920538,1.683148 0.7528165,2.243911 0.8078471,0.807847 -1.7908686,0.7364 27.0538515,0.743794 25.429342,0.0065 25.685062,0.0047 26.183732,-0.181833 z"
   id="path1027" /></svg>
