<?xml version="1.0" encoding="UTF-8" standalone="no"?>
<svg
   id="Layer_1"
   data-name="Layer 1"
   viewBox="0 0 128 128"
   version="1.1"
   sodipodi:docname="Info.svg"
   inkscape:version="1.1.1 (3bf5ae0d25, 2021-09-20)"
   xmlns:inkscape="http://www.inkscape.org/namespaces/inkscape"
   xmlns:sodipodi="http://sodipodi.sourceforge.net/DTD/sodipodi-0.dtd"
   xmlns="http://www.w3.org/2000/svg"
   xmlns:svg="http://www.w3.org/2000/svg">
  <sodipodi:namedview
     id="namedview11"
     pagecolor="#ffffff"
     bordercolor="#666666"
     borderopacity="1.0"
     inkscape:pageshadow="2"
     inkscape:pageopacity="0.0"
     inkscape:pagecheckerboard="0"
     showgrid="false"
     inkscape:zoom="5.125"
     inkscape:cx="64"
     inkscape:cy="63.902439"
     inkscape:window-width="2560"
     inkscape:window-height="1017"
     inkscape:window-x="1358"
     inkscape:window-y="-8"
     inkscape:window-maximized="1"
     inkscape:current-layer="Layer_1" />
  <defs
     id="defs4">
    <style
       id="style2">.cls-1{fill:#2d3e50;}</style>
  </defs>
  <title
     id="title6">x</title>
  <path
     class="cls-1"
     d="M70.574,4.21473A54.3192,54.3192,0,0,0,17.01528,49.91849C16.57421,52.698,3.19661,123.78527,3.19661,123.78527L42.985,105.13883A54.23221,54.23221,0,1,0,70.574,4.21473ZM67.96373,28.0213a7.26583,7.26583,0,1,1-7.26887,7.26282A7.259,7.259,0,0,1,67.96373,28.0213ZM78.56186,88.97575H62.07251a3.69787,3.69787,0,0,1,0-7.39574h2.3142V57.64654h-.429a4.32024,4.32024,0,0,1-.75528-8.57395c.15106-.03024,4.88821-.96679,8.61629-1.70393a3.73065,3.73065,0,0,1,4.4592,3.66162V81.58h2.284a3.69787,3.69787,0,0,1,0,7.39574Z"
     id="path8" />
  <path
     style="fill:#337abe;fill-rule:evenodd;stroke:#337abe;stroke-width:0.2"
     d="M 3.4082798,123.18708 C 3.548157,122.59094 14.401151,64.652162 16.194674,54.926829 17.797041,46.238033 18.255517,44.251891 19.454254,40.806162 25.297754,24.00922 38.855284,11.229959 56,6.3583229 61.374537,4.8311596 65.723491,4.3085336 71.902439,4.4472828 c 5.923655,0.1330165 9.847873,0.7787001 15.287614,2.5153952 8.27286,2.6411999 15.280707,6.97285 21.694847,13.409892 4.36084,4.376417 7.1658,8.223092 9.86056,13.522603 3.74449,7.363916 5.6064,14.586847 5.87418,22.787754 0.48267,14.781914 -4.9482,28.810041 -15.24953,39.39007 -8.85779,9.097433 -19.866467,14.558263 -32.486235,16.114713 -3.114808,0.38416 -9.286564,0.39022 -12.517436,0.0123 -4.57598,-0.53528 -9.49175,-1.76895 -13.650181,-3.42566 -1.816521,-0.7237 -5.66705,-2.57131 -7.115124,-3.41406 l -0.593987,-0.3457 -19.698696,9.22391 c -10.834282,5.07313 -19.7680679,9.26441 -19.8528572,9.31393 -0.084789,0.0495 -0.1060805,-0.11488 -0.047314,-0.36534 z M 80.097561,88.704382 c 1.875953,-0.865808 2.723342,-2.984089 1.941906,-4.854327 C 81.342868,82.182859 80.083163,81.474156 77.804878,81.4677 L 76.292683,81.4634 V 65.736806 c 0,-17.251069 0.05913,-16.363399 -1.168394,-17.539444 -0.3169,-0.303608 -1.012867,-0.657497 -1.584839,-0.805863 -0.97617,-0.253216 -1.232962,-0.222239 -6.00027,0.72384 -5.009102,0.994062 -6.018421,1.315151 -6.784649,2.158355 -1.285411,1.414548 -1.551682,3.668304 -0.620527,5.252195 0.700505,1.191555 1.85166,1.969998 3.089036,2.088893 l 0.972082,0.09341 V 69.585806 81.46342 l -1.414634,0.0043 c -1.605549,0.0049 -2.665532,0.395017 -3.499782,1.288184 -1.792685,1.919288 -0.905207,5.379288 1.571944,6.128523 0.282261,0.08537 4.552228,0.160841 9.488813,0.167709 8.32977,0.01159 9.03177,-0.01342 9.756098,-0.347733 z M 71.068843,41.907153 c 1.628515,-0.762074 2.755448,-1.88913 3.535791,-3.536177 0.551432,-1.163889 0.614006,-1.479009 0.60642,-3.053903 -0.0064,-1.334384 -0.110962,-2.013811 -0.435304,-2.829268 -0.622737,-1.565688 -1.94533,-2.976962 -3.512207,-3.747705 -1.22645,-0.60329 -1.431576,-0.6425 -3.358062,-0.641899 -1.869616,5.85e-4 -2.149694,0.05018 -3.153955,0.558542 -1.368195,0.692584 -2.701522,2.033308 -3.42183,3.440818 -0.499189,0.97543 -0.549208,1.259768 -0.549208,3.121951 0,1.805885 0.06096,2.178788 0.514179,3.145368 1.330002,2.836492 3.832482,4.336702 7.012956,4.204191 1.156906,-0.0482 1.757302,-0.192127 2.76122,-0.661918 z"
     id="path865" />
</svg>
