<?xml version="1.0" encoding="UTF-8" standalone="no"?>
<!-- Generator: Adobe Illustrator 23.0.3, SVG Export Plug-In . SVG Version: 6.00 Build 0)  -->

<svg
   version="1.1"
   id="Icons"
   x="0px"
   y="0px"
   viewBox="0 0 32 32"
   style="enable-background:new 0 0 32 32;"
   xml:space="preserve"
   sodipodi:docname="recette1.svg"
   inkscape:version="1.1.1 (3bf5ae0d25, 2021-09-20)"
   xmlns:inkscape="http://www.inkscape.org/namespaces/inkscape"
   xmlns:sodipodi="http://sodipodi.sourceforge.net/DTD/sodipodi-0.dtd"
   xmlns="http://www.w3.org/2000/svg"
   xmlns:svg="http://www.w3.org/2000/svg"><defs
   id="defs17" /><sodipodi:namedview
   id="namedview15"
   pagecolor="#ffffff"
   bordercolor="#666666"
   borderopacity="1.0"
   inkscape:pageshadow="2"
   inkscape:pageopacity="0.0"
   inkscape:pagecheckerboard="0"
   showgrid="false"
   inkscape:zoom="20.5"
   inkscape:cx="14.390244"
   inkscape:cy="15.97561"
   inkscape:window-width="2560"
   inkscape:window-height="1017"
   inkscape:window-x="1358"
   inkscape:window-y="-8"
   inkscape:window-maximized="1"
   inkscape:current-layer="Icons" />
<style
   type="text/css"
   id="style2">
	.st0{fill:none;stroke:#000000;stroke-width:2;stroke-linecap:round;stroke-linejoin:round;stroke-miterlimit:10;}
</style>
<path
   class="st0"
   d="M22.4,8.1C22.7,8,23.1,8,23.5,8c3,0,5.5,2.5,5.5,5.5S26.5,19,23.5,19l0.5,9H8l0.5-9c-3,0-5.5-2.5-5.5-5.5  S5.5,8,8.5,8c0.4,0,0.8,0,1.1,0.1"
   id="path4" />
<path
   class="st0"
   d="M23,11c0-3.9-3.1-7-7-7s-7,3.1-7,7"
   id="path6" />
<line
   class="st0"
   x1="16"
   y1="21"
   x2="16"
   y2="24"
   id="line8" />
<line
   class="st0"
   x1="12.5"
   y1="21"
   x2="12"
   y2="23.7"
   id="line10" />
<line
   class="st0"
   x1="19.5"
   y1="21"
   x2="20"
   y2="23.7"
   id="line12" />
<path
   style="fill:#337abe;fill-rule:evenodd;stroke:#337abe;stroke-width:0.2"
   d="m 7.8536585,28.954754 c -0.3814844,-0.07792 -0.6816868,-0.33722 -0.7831751,-0.676465 -0.042287,-0.141351 -0.00537,-1.052684 0.1694322,-4.182753 0.1229244,-2.201113 0.223499,-4.04649 0.223499,-4.100836 0,-0.08315 -0.059928,-0.112782 -0.3780487,-0.186939 C 5.8533915,19.520579 4.7711195,18.897393 3.86139,17.951355 2.925661,16.97828 2.3413643,15.841093 2.1184028,14.559068 1.9994296,13.874974 2.0438461,12.661664 2.2120844,12 2.8192787,9.6119668 4.6976356,7.750712 7.0548995,7.2012777 7.5588712,7.0838114 8.5483893,6.990112 8.8493263,7.0313601 l 0.2004474,0.027474 0.2419278,-0.381905 C 10.508854,4.75554 12.619132,3.4135287 14.918336,3.0987238 c 0.513019,-0.070242 1.650309,-0.070242 2.163328,0 2.301723,0.3151498 4.408148,1.6547112 5.626635,3.5782056 l 0.241927,0.381905 0.200448,-0.027474 c 0.300937,-0.041248 1.290455,0.052451 1.794426,0.1699176 1.803942,0.4204651 3.435316,1.6917164 4.285487,3.339473 0.501689,0.972346 0.671674,1.634637 0.706316,2.751932 0.02857,0.921496 -0.03863,1.437218 -0.282615,2.168824 -0.323046,0.968676 -0.789091,1.734262 -1.515678,2.489848 -0.90973,0.946038 -1.992001,1.569224 -3.223976,1.856406 -0.318121,0.07416 -0.378049,0.10379 -0.378049,0.186939 0,0.05435 0.100575,1.899723 0.223499,4.100836 0.174804,3.130069 0.211719,4.041402 0.169433,4.182753 -0.07107,0.237562 -0.260124,0.456668 -0.508824,0.589704 l -0.201181,0.107617 -8.097561,0.007 c -4.453658,0.0039 -8.17439,-0.0087 -8.2682925,-0.02786 z M 22.95871,26.743902 c -0.01548,-0.140853 -0.121629,-1.981109 -0.235892,-4.089457 l -0.207752,-3.833359 0.123181,-0.239365 c 0.07134,-0.138633 0.20608,-0.297628 0.32017,-0.377813 0.172861,-0.121491 0.263538,-0.144168 0.740334,-0.185138 0.686618,-0.059 1.192128,-0.18711 1.704147,-0.431872 0.5182,-0.247717 0.773643,-0.42563 1.220347,-0.849955 0.648334,-0.615853 1.129382,-1.481875 1.311026,-2.360212 0.107417,-0.519413 0.06823,-1.605384 -0.07514,-2.082295 C 27.466543,10.988488 26.581675,9.9646429 25.34726,9.3880507 24.894772,9.1766946 24.471332,9.0572371 24.027824,9.0158215 l -0.307607,-0.028725 0.093,0.4088907 c 0.05451,0.2396644 0.105083,0.7020508 0.122191,1.1172328 0.02679,0.650188 0.02102,0.724277 -0.07031,0.902439 -0.379083,0.739459 -1.348306,0.744788 -1.725352,0.0095 C 22.070258,11.289637 22.032733,11.067768 21.99866,10.590984 21.808963,7.9365922 20.093363,5.853534 17.524363,5.1583558 17.079786,5.0380518 16.980406,5.0296523 16,5.0295176 c -0.993017,-1.366e-4 -1.074494,0.00696 -1.5324,0.1334331 -1.859018,0.5134676 -3.254102,1.7061417 -3.991776,3.4126176 -0.273408,0.6324795 -0.420246,1.2564766 -0.474579,2.0167557 -0.033987,0.475571 -0.071537,0.697378 -0.1409889,0.832821 -0.3770459,0.735302 -1.3462688,0.729973 -1.7253517,-0.0095 -0.091335,-0.178162 -0.097108,-0.252251 -0.070316,-0.902439 0.017107,-0.415149 0.067679,-0.8775683 0.122181,-1.1171854 L 8.2797629,8.9871912 7.9569546,9.0175541 C 7.5395717,9.0568127 7.044402,9.2004015 6.6021879,9.4104078 5.4085103,9.9772829 4.5268993,11.010301 4.1408656,12.294436 c -0.143368,0.476911 -0.1825538,1.562882 -0.075137,2.082295 0.2865568,1.385643 1.2342813,2.590049 2.5227708,3.206039 0.5203628,0.248771 1.0230409,0.376733 1.7127497,0.436 0.4767956,0.04097 0.5674731,0.06365 0.7403341,0.185138 0.1140893,0.08019 0.2488264,0.23918 0.3201693,0.377813 l 0.1231814,0.239365 -0.2077517,3.833359 C 9.162919,24.762793 9.0567673,26.603049 9.0412898,26.743902 L 9.0131488,27 H 16 22.986851 Z"
   id="path871" /><path
   style="fill:#337abe;fill-rule:evenodd;stroke:#337abe;stroke-width:0.2"
   d="m 19.538614,24.547564 c -0.386969,-0.219178 -0.433927,-0.343917 -0.732408,-1.945543 -0.148292,-0.795717 -0.269621,-1.529641 -0.269621,-1.63094 0,-0.59819 0.647666,-1.075003 1.225176,-0.901977 0.218046,0.06533 0.503775,0.29788 0.603906,0.491511 0.115996,0.224312 0.621566,3.068602 0.586787,3.301212 -0.03938,0.26341 -0.26593,0.572884 -0.510832,0.697824 -0.266804,0.136113 -0.65042,0.130978 -0.903008,-0.01209 z"
   id="path910" /><path
   style="fill:#337abe;fill-rule:evenodd;stroke:#337abe;stroke-width:0.2"
   d="m 15.585366,24.870164 c -0.226388,-0.119349 -0.370418,-0.266801 -0.468779,-0.47992 -0.08199,-0.177649 -0.09015,-0.346416 -0.09113,-1.884674 l -0.0011,-1.689551 0.135822,-0.259993 c 0.109952,-0.210472 0.185342,-0.285862 0.395814,-0.395814 0.3321,-0.173491 0.555848,-0.173491 0.887948,0 0.210472,0.109952 0.285862,0.185342 0.395814,0.395814 l 0.135822,0.259993 v 1.678923 c 0,1.800759 -0.01069,1.889889 -0.258426,2.155481 -0.266414,0.285611 -0.807576,0.390677 -1.131818,0.219741 z"
   id="path988" /><path
   style="fill:#337abe;fill-rule:evenodd;stroke:#337abe;stroke-width:0.2"
   d="m 11.547924,24.557215 c -0.237168,-0.125189 -0.4618,-0.437365 -0.500378,-0.695388 -0.03478,-0.23261 0.470791,-3.0769 0.586787,-3.301212 0.100131,-0.193631 0.38586,-0.426182 0.603906,-0.491511 0.57751,-0.173026 1.225176,0.303787 1.225176,0.901977 0,0.101299 -0.121329,0.835223 -0.269621,1.63094 -0.298481,1.601626 -0.345439,1.726365 -0.732408,1.945543 -0.250862,0.142088 -0.654484,0.146352 -0.913462,0.0097 z"
   id="path1027" /></svg>
