<?xml version="1.0" encoding="UTF-8" standalone="no"?>
<!-- Generator: Adobe Illustrator 23.0.3, SVG Export Plug-In . SVG Version: 6.00 Build 0)  -->

<svg
   version="1.1"
   id="Icons"
   x="0px"
   y="0px"
   viewBox="0 0 32 32"
   style="enable-background:new 0 0 32 32;"
   xml:space="preserve"
   sodipodi:docname="recette2.svg"
   inkscape:version="1.1.1 (3bf5ae0d25, 2021-09-20)"
   xmlns:inkscape="http://www.inkscape.org/namespaces/inkscape"
   xmlns:sodipodi="http://sodipodi.sourceforge.net/DTD/sodipodi-0.dtd"
   xmlns="http://www.w3.org/2000/svg"
   xmlns:svg="http://www.w3.org/2000/svg"><defs
   id="defs7" /><sodipodi:namedview
   id="namedview5"
   pagecolor="#ffffff"
   bordercolor="#666666"
   borderopacity="1.0"
   inkscape:pageshadow="2"
   inkscape:pageopacity="0.0"
   inkscape:pagecheckerboard="0"
   showgrid="false"
   inkscape:zoom="20.5"
   inkscape:cx="16"
   inkscape:cy="15.97561"
   inkscape:window-width="2560"
   inkscape:window-height="1017"
   inkscape:window-x="1358"
   inkscape:window-y="-8"
   inkscape:window-maximized="1"
   inkscape:current-layer="Icons" />
<path
   d="M30,13.5C30,9.9,27.1,7,23.5,7c-0.2,0-0.4,0-0.6,0c-1.4-2.4-4-4-6.9-4c-3,0-5.6,1.6-6.9,4C8.9,7,8.7,7,8.5,7  C4.9,7,2,9.9,2,13.5c0,3.2,2.4,5.9,5.4,6.4l-0.4,8c0,0.3,0.1,0.5,0.3,0.7C7.5,28.9,7.7,29,8,29h16c0.3,0,0.5-0.1,0.7-0.3  c0.2-0.2,0.3-0.5,0.3-0.7l-0.4-8C27.6,19.4,30,16.7,30,13.5z M13,23.9c-0.1,0.5-0.5,0.8-1,0.8c-0.1,0-0.1,0-0.2,0  c-0.5-0.1-0.9-0.6-0.8-1.2l0.5-2.7c0.1-0.5,0.6-0.9,1.2-0.8c0.5,0.1,0.9,0.6,0.8,1.2L13,23.9z M17,24c0,0.6-0.4,1-1,1s-1-0.4-1-1v-3  c0-0.6,0.4-1,1-1s1,0.4,1,1V24z M20.1,24.7c-0.1,0-0.1,0-0.2,0c-0.5,0-0.9-0.3-1-0.8l-0.5-2.7c-0.1-0.5,0.3-1.1,0.8-1.2  c0.5-0.1,1.1,0.3,1.2,0.8l0.5,2.7C21,24.1,20.7,24.6,20.1,24.7z"
   id="path2" />
<path
   style="fill:#337abe;fill-rule:evenodd;stroke:#337abe;stroke-width:0.2"
   d="M 7.8305029,28.95193 C 7.6821566,28.923088 7.5766156,28.849773 7.3811663,28.639792 7.2406688,28.488849 7.1011824,28.283146 7.0711966,28.182675 7.0286322,28.040058 7.0603141,27.133555 7.2156746,24.04878 7.3251234,21.87561 7.4146639,20.048589 7.4146532,19.988734 7.4146395,19.909568 7.3780732,19.872008 7.2804878,19.850925 6.4410411,19.669561 5.5814366,19.309671 4.8978968,18.853404 4.414658,18.53084 3.4676706,17.58171 3.1460169,17.097561 2.6282645,16.318246 2.2732014,15.444877 2.122276,14.579407 2.0263707,14.029445 2.0273143,12.940997 2.1241789,12.384439 2.5045463,10.19895 4.0757999,8.2717541 6.1219512,7.4810345 6.8322615,7.2065404 7.3715302,7.096847 8.304878,7.037002 8.7810976,7.0064676 9.1707317,6.964873 9.1707317,6.9445698 c 0,-0.020303 0.1585229,-0.2740642 0.3522727,-0.5639132 C 10.5489,4.8459215 12.300614,3.6650771 14.204102,3.2250899 15.00869,3.0391113 16.278325,2.9822727 17.057047,3.0973701 c 1.733123,0.2561609 3.301398,1.0422141 4.535917,2.2734998 0.428181,0.4270593 0.934637,1.0588208 1.153076,1.4383667 l 0.103183,0.1792859 0.685145,0.034348 c 0.859955,0.043112 1.379537,0.1316182 2.010029,0.3423897 1.624641,0.5431132 2.980171,1.7192239 3.75514,3.2581058 0.229872,0.456464 0.483315,1.234709 0.575402,1.766878 0.09734,0.562559 0.09871,1.639059 0.0028,2.189163 -0.356172,2.042444 -1.734664,3.859237 -3.660718,4.82467 -0.395613,0.198301 -1.13752,0.468233 -1.497494,0.544843 -0.106612,0.02269 -0.134154,0.05589 -0.134183,0.161765 -2.1e-5,0.07327 0.08888,1.899731 0.197567,4.058802 0.185234,3.679842 0.192685,3.938465 0.119029,4.13133 -0.10754,0.281591 -0.240354,0.438406 -0.479707,0.566398 l -0.202706,0.108395 -8.097561,0.007 c -4.453658,0.0039 -8.18481,-0.01 -8.2914481,-0.03069 z m 8.7099201,-4.065257 c 0.160293,-0.08476 0.248286,-0.178375 0.349136,-0.371424 l 0.134831,-0.258097 -2.92e-4,-1.713942 c -1.96e-4,-1.099981 -0.01957,-1.783444 -0.05414,-1.907964 -0.240556,-0.866485 -1.699407,-0.866485 -1.939963,0 -0.03457,0.12452 -0.05396,0.807983 -0.05414,1.907964 l -2.92e-4,1.713942 0.134831,0.258097 C 15.291795,24.862399 15.544304,25 16,25 c 0.247224,0 0.377963,-0.02742 0.540423,-0.113327 z m -4.112027,-0.255114 c 0.23445,-0.09794 0.418235,-0.276241 0.516383,-0.500984 0.04308,-0.09865 0.197824,-0.837892 0.343879,-1.64277 0.277828,-1.531062 0.285954,-1.673067 0.114452,-2 -0.257093,-0.490096 -0.895159,-0.661998 -1.412355,-0.380504 -0.398483,0.216881 -0.448275,0.346492 -0.750008,1.952313 -0.145076,0.77209 -0.263599,1.513557 -0.263384,1.647703 6.44e-4,0.404054 0.202889,0.737963 0.559222,0.923288 0.188808,0.0982 0.657817,0.0987 0.891811,9.52e-4 z m 8.000377,-0.01661 c 0.330045,-0.168448 0.498056,-0.463289 0.498056,-0.874032 0,-0.291876 -0.46071,-2.833039 -0.565052,-3.116691 -0.203173,-0.552318 -0.999666,-0.835455 -1.46393,-0.520398 -0.278591,0.189058 -0.462465,0.464863 -0.523494,0.785228 -0.02847,0.149471 0.439007,2.847825 0.557778,3.219552 0.05632,0.176273 0.432651,0.532991 0.5958,0.564749 0.297079,0.05783 0.727813,0.0299 0.900842,-0.05841 z"
   id="path861" /></svg>
