<?xml version="1.0" encoding="UTF-8" standalone="no"?>
<!-- Generator: Adobe Illustrator 21.1.0, SVG Export Plug-In . SVG Version: 6.00 Build 0)  -->

<svg
   version="1.1"
   id="Layer_1"
   x="0px"
   y="0px"
   viewBox="0 0 61.002482 60.923615"
   xml:space="preserve"
   sodipodi:docname="cancel-icon.svg"
   inkscape:version="1.1.1 (3bf5ae0d25, 2021-09-20)"
   width="61.002483"
   height="60.923615"
   xmlns:inkscape="http://www.inkscape.org/namespaces/inkscape"
   xmlns:sodipodi="http://sodipodi.sourceforge.net/DTD/sodipodi-0.dtd"
   xmlns="http://www.w3.org/2000/svg"
   xmlns:svg="http://www.w3.org/2000/svg"><defs
   id="defs7" /><sodipodi:namedview
   id="namedview5"
   pagecolor="#ffffff"
   bordercolor="#666666"
   borderopacity="1.0"
   inkscape:pageshadow="2"
   inkscape:pageopacity="0.0"
   inkscape:pagecheckerboard="0"
   showgrid="false"
   inkscape:zoom="10.782026"
   inkscape:cx="30.513746"
   inkscape:cy="30.374626"
   inkscape:window-width="2560"
   inkscape:window-height="1017"
   inkscape:window-x="1358"
   inkscape:window-y="-8"
   inkscape:window-maximized="1"
   inkscape:current-layer="Layer_1" />
<path
   style="fill:#231f20"
   d="m 59.595337,52.900206 -22.501,-22.502 22.379,-22.3789996 c 1.825,-1.826 1.825,-4.786 0,-6.611 -1.826,-1.82500001 -4.785,-1.82500001 -6.611,0 L 30.483337,23.787206 8.1053366,1.4082064 c -1.826,-1.82500001 -4.785,-1.82500001 -6.611,0 -1.82599998,1.826 -1.82599998,4.786 0,6.611 L 23.872337,30.398206 1.3693366,52.900206 c -1.82599998,1.826 -1.82599998,4.785 0,6.611 0.913,0.913 2.109,1.369 3.306,1.369 1.197,0 2.393,-0.456 3.306,-1.369 l 22.5020004,-22.502 22.501,22.502 c 0.913,0.913 2.109,1.369 3.306,1.369 1.197,0 2.393,-0.456 3.306,-1.369 1.824,-1.825 1.824,-4.785 -10e-4,-6.611 z"
   id="path2" />
<path
   style="fill:#337abe;fill-rule:evenodd;stroke:#337abe;stroke-width:0.2"
   d="M 3.5835293,60.687692 C 2.0789567,60.323514 0.78068147,59.107319 0.2753771,57.588688 0.1077353,57.084862 0.08054567,56.825864 0.10985458,56.01199 0.14108244,55.144829 0.1793767,54.961946 0.45942296,54.342545 0.77206111,53.651058 0.84254533,53.57822 12.373623,42.030571 L 23.973324,30.414199 12.466356,18.890207 C 1.7767877,8.1848245 0.93917151,7.3233915 0.67478946,6.7633603 -0.23306935,4.8402745 0.15703494,2.7602534 1.6933178,1.332606 2.8322635,0.27419882 4.3323318,-0.12575806 5.8347627,0.22839008 7.2043772,0.55123119 6.5768098,-0.02797062 19.036831,12.412995 L 30.514449,23.87306 42.038075,12.367541 C 50.859064,3.560413 53.672345,0.80417794 54.03347,0.61538007 c 2.510185,-1.31233507 5.624083,-0.0177775 6.533826,2.71634303 0.167641,0.5038269 0.194831,0.762824 0.165522,1.5766982 -0.03123,0.8671672 -0.06952,1.0500398 -0.349573,1.6694451 -0.312595,0.6913809 -0.384199,0.7653983 -11.799316,12.1970916 -6.316647,6.32582 -11.484812,11.542125 -11.484812,11.591789 0,0.04966 5.170677,5.266289 11.490394,11.5925 11.291725,11.303329 11.49616,11.514352 11.823966,12.204897 0.658898,1.388015 0.653832,2.762787 -0.01512,4.103431 -1.230893,2.466814 -4.349613,3.29653 -6.651159,1.769499 C 53.49214,59.867851 48.170848,54.615026 41.9221,48.364131 35.673352,42.113235 30.51933,36.998865 30.468717,36.998865 c -0.05061,0 -5.288561,5.191467 -11.639884,11.536593 C 8.0142504,59.339487 7.2426914,60.08976 6.678117,60.350948 5.6198451,60.840534 4.6506855,60.945995 3.5835293,60.687692 Z"
   id="path861" /></svg>
