<?xml version="1.0" encoding="UTF-8" standalone="no"?>
<svg
   width="48.14645"
   height="48.282696"
   viewBox="0 0 48.14645 48.282696"
   fill="none"
   version="1.1"
   id="svg6"
   sodipodi:docname="logo_yt.svg"
   inkscape:version="1.1.1 (3bf5ae0d25, 2021-09-20)"
   xmlns:inkscape="http://www.inkscape.org/namespaces/inkscape"
   xmlns:sodipodi="http://sodipodi.sourceforge.net/DTD/sodipodi-0.dtd"
   xmlns="http://www.w3.org/2000/svg"
   xmlns:svg="http://www.w3.org/2000/svg">
  <defs
     id="defs10" />
  <sodipodi:namedview
     id="namedview8"
     pagecolor="#ffffff"
     bordercolor="#666666"
     borderopacity="1.0"
     inkscape:pageshadow="2"
     inkscape:pageopacity="0.0"
     inkscape:pagecheckerboard="0"
     showgrid="false"
     inkscape:zoom="4"
     inkscape:cx="10.75"
     inkscape:cy="18.875"
     inkscape:window-width="1264"
     inkscape:window-height="1001"
     inkscape:window-x="1366"
     inkscape:window-y="0"
     inkscape:window-maximized="1"
     inkscape:current-layer="svg6" />
  <path
     fill-rule="evenodd"
     clip-rule="evenodd"
     d="m 24.068509,0.13398981 c -13.2548,0 -24.00000035,10.74520019 -24.00000035,24.00000019 0,13.2548 10.74520035,24 24.00000035,24 13.2548,0 24,-10.7452 24,-24 0,-13.2548 -10.7452,-24.00000019 -24,-24.00000019 z M 34.070109,15.88329 c 1.1015,0.3023 1.969,1.1929 2.2634,2.3239 0.535,2.0498 0.535,6.3268 0.535,6.3268 0,0 0,4.2768 -0.535,6.3268 -0.2944,1.131 -1.1619,2.0216 -2.2634,2.324 -1.9962,0.5492 -10.0016,0.5492 -10.0016,0.5492 0,0 -8.0054,0 -10.0017,-0.5492 -1.1016,-0.3024 -1.9691,-1.193 -2.2635,-2.324 -0.5348,-2.05 -0.5348,-6.3268 -0.5348,-6.3268 0,0 0,-4.277 0.5348,-6.3268 0.2944,-1.131 1.1619,-2.0216 2.2635,-2.3239 1.9963,-0.5493 10.0017,-0.5493 10.0017,-0.5493 0,0 8.0054,0 10.0016,0.5493 z"
     fill="#000000"
     id="path2" />
  <path
     d="m 21.668509,28.93399 v -8 l 6.4,4.0001 z"
     fill="#000000"
     id="path4" />
  <path
     style="fill:#94bcdc;fill-opacity:1;fill-rule:evenodd;stroke:#94bcdc;stroke-width:0.5;stroke-miterlimit:4;stroke-dasharray:none;stroke-opacity:1"
     d="m 21.723654,24.923251 v -3.902777 l 0.287262,0.182993 c 0.157994,0.100645 1.549464,0.969652 3.092155,1.931126 1.542692,0.961474 2.80554,1.768231 2.806331,1.792792 0.0012,0.03621 -4.567399,2.922809 -5.847622,3.69476 l -0.338126,0.203883 z"
     id="path1981" />
  <path
     style="fill:#94bcdc;fill-opacity:1;fill-rule:evenodd;stroke:#94bcdc;stroke-width:0.5;stroke-miterlimit:4;stroke-dasharray:none;stroke-opacity:1"
     d="M 22.165596,47.941257 C 11.258261,47.058252 2.3862916,38.921408 0.51623344,28.085746 0.16773712,26.066458 0.16544988,22.116481 0.5116274,20.131352 1.6356098,13.68596 5.4817205,7.8089339 10.934317,4.2050264 c 1.954,-1.2915015 3.321284,-1.9476093 5.727712,-2.7485105 7.065974,-2.35168079 14.725335,-1.23518863 21.059916,3.0698688 1.687952,1.1471526 4.769504,4.2306264 5.945336,5.9490423 1.826227,2.668937 3.206952,5.928847 3.893406,9.192388 0.436105,2.073329 0.44066,6.731884 0.0087,8.875924 -1.889976,9.380466 -8.918895,16.71217 -18.067538,18.845835 -1.434131,0.33447 -2.341811,0.452318 -4.861359,0.631168 -0.437523,0.03106 -1.551216,-0.0047 -2.474874,-0.07948 z m 8.57367,-14.316535 c 3.336656,-0.226195 3.873516,-0.370865 4.791095,-1.291074 0.896391,-0.898959 1.079888,-1.626855 1.323269,-5.249142 0.183517,-2.73131 3.54e-4,-6.875931 -0.382606,-8.654128 -0.257721,-1.196905 -1.288471,-2.335816 -2.379987,-2.629731 -2.615154,-0.704188 -16.974439,-0.706258 -19.947783,-0.0029 -1.054203,0.249385 -2.058363,1.18291 -2.360983,2.194909 -0.761256,2.545726 -0.761256,10.527264 0,13.07299 0.282199,0.943706 1.290267,1.920049 2.263883,2.192639 1.749178,0.489726 11.663845,0.707354 16.693112,0.366414 z"
     id="path2020" />
</svg>
