<?xml version="1.0" encoding="UTF-8" standalone="no"?>
<svg
   width="48.358398"
   height="48.41283"
   viewBox="0 0 48.358398 48.41283"
   fill="none"
   version="1.1"
   id="svg4"
   sodipodi:docname="logo_fb.svg"
   inkscape:version="1.1.1 (3bf5ae0d25, 2021-09-20)"
   xmlns:inkscape="http://www.inkscape.org/namespaces/inkscape"
   xmlns:sodipodi="http://sodipodi.sourceforge.net/DTD/sodipodi-0.dtd"
   xmlns="http://www.w3.org/2000/svg"
   xmlns:svg="http://www.w3.org/2000/svg">
  <defs
     id="defs8" />
  <sodipodi:namedview
     id="namedview6"
     pagecolor="#ffffff"
     bordercolor="#666666"
     borderopacity="1.0"
     inkscape:pageshadow="2"
     inkscape:pageopacity="0.0"
     inkscape:pagecheckerboard="0"
     showgrid="false"
     inkscape:zoom="6.8333333"
     inkscape:cx="31.170732"
     inkscape:cy="19.536585"
     inkscape:window-width="1366"
     inkscape:window-height="705"
     inkscape:window-x="-8"
     inkscape:window-y="-8"
     inkscape:window-maximized="1"
     inkscape:current-layer="svg4" />
  <path
     fill-rule="evenodd"
     clip-rule="evenodd"
     d="m 24.178914,0.20944492 c -13.2548,0 -24.00000016,10.74520008 -24.00000016,24.00000008 0,13.2548 10.74520016,24 24.00000016,24 13.2548,0 24,-10.7452 24,-24 0,-13.2548 -10.7452,-24.00000008 -24,-24.00000008 z m 2.5016,25.05420008 v 13.0573 h -5.4025 v -13.0568 h -2.6991 v -4.4996 h 2.6991 v -2.7015 c 0,-3.6708 1.524,-5.8536 5.8541,-5.8536 h 3.6049 v 4.5001 h -2.2533 c -1.6856,0 -1.7971,0.6288 -1.7971,1.8024 l -0.0061,2.2521 h 4.082 l -0.4777,4.4996 z"
     fill="#000000"
     id="path2" />
  <path
     style="fill:#94bcdc;fill-opacity:1;fill-rule:evenodd;stroke:#94bcdc;stroke-width:0.5;stroke-miterlimit:4;stroke-dasharray:none;stroke-opacity:1"
     d="M 22.203304,48.091889 C 19.252482,47.833596 16.495834,47.083887 13.876616,45.827326 6.2657592,42.176045 1.1720273,34.915827 0.32671129,26.514323 0.22757579,25.529026 0.22702862,22.898096 0.32575256,21.904567 1.3550129,11.546394 8.8992099,3.0491383 19.056963,0.80704284 27.885405,-1.1416373 37.134494,2.1124457 42.811204,9.1644369 c 2.959405,3.6763701 4.738345,8.0189551 5.218996,12.7401301 0.100236,0.984561 0.101385,3.641273 0.002,4.580082 -0.511903,4.834581 -2.24484,9.06539 -5.242043,12.797967 -0.748719,0.932419 -2.346752,2.5615 -3.245372,3.308426 -4.375712,3.637057 -9.88918,5.617146 -15.512195,5.571 -0.623781,-0.0051 -1.446952,-0.03669 -1.829269,-0.07015 z M 26.73989,31.819201 v -6.54878 h 1.792683 c 0.985975,0 1.792682,-0.0149 1.792682,-0.03311 0,-0.01821 0.09878,-0.947171 0.219513,-2.064352 0.120731,-1.117181 0.219512,-2.123011 0.219512,-2.235179 V 20.73384 H 28.752085 26.73989 l 4.39e-4,-1.445122 c 4.39e-4,-1.586998 0.04675,-1.874477 0.346689,-2.15274 0.334403,-0.31023 0.624163,-0.363936 2.195585,-0.406937 l 1.481708,-0.04055 V 14.423565 12.15864 l -2.542683,0.03437 c -2.657757,0.03593 -2.950947,0.06658 -3.927963,0.410647 -1.4334,0.504787 -2.366686,1.574714 -2.800287,3.21027 -0.176792,0.666862 -0.191114,0.847579 -0.223183,2.816247 l -0.0343,2.103658 H 19.89033 18.544767 v 2.268293 2.268293 h 1.353658 1.353659 v 6.54878 6.548781 h 2.743902 2.743903 z"
     id="path2965" />
</svg>
