<?xml version="1.0" encoding="UTF-8" standalone="no"?>
<svg
   version="1.0"
   width="438.93555pt"
   height="115.53734pt"
   viewBox="0 0 438.93556 115.53734"
   preserveAspectRatio="xMidYMid meet"
   id="svg32"
   sodipodi:docname="LOGO-TSIRO-kely.svg"
   inkscape:version="1.1.1 (3bf5ae0d25, 2021-09-20)"
   xmlns:inkscape="http://www.inkscape.org/namespaces/inkscape"
   xmlns:sodipodi="http://sodipodi.sourceforge.net/DTD/sodipodi-0.dtd"
   xmlns="http://www.w3.org/2000/svg"
   xmlns:svg="http://www.w3.org/2000/svg">
  <defs
     id="defs36" />
  <sodipodi:namedview
     id="namedview34"
     pagecolor="#ffffff"
     bordercolor="#666666"
     borderopacity="1.0"
     inkscape:pageshadow="2"
     inkscape:pageopacity="0.0"
     inkscape:pagecheckerboard="0"
     inkscape:document-units="pt"
     showgrid="false"
     inkscape:zoom="7.5377176"
     inkscape:cx="463.13754"
     inkscape:cy="77.941365"
     inkscape:window-width="2560"
     inkscape:window-height="1017"
     inkscape:window-x="1358"
     inkscape:window-y="-8"
     inkscape:window-maximized="1"
     inkscape:current-layer="svg32" />
  <path
     style="fill:#3179bd;fill-opacity:1;fill-rule:evenodd;stroke:#3179bd;stroke-width:0.75"
     d="m 327.56566,113.34059 c -13.09915,-2.07421 -23.75394,-8.25949 -29.73936,-17.26421 -2.43692,-3.666198 -5.45823,-10.040117 -5.45823,-11.514967 0,-0.60662 0.71443,-2.164245 1.58762,-3.461405 2.03404,-3.02162 2.18717,-4.133778 1.29246,-9.386884 -1.19666,-7.025961 -0.35503,-9.208377 4.1903,-10.865939 l 2.62563,-0.957496 0.002,-7.985424 c 0.003,-10.437293 0.39083,-12.885591 2.29478,-14.499236 2.15134,-1.823297 4.45276,-2.316618 6.73704,-1.44411 3.7592,1.43587 4.26705,2.721647 5.28258,13.374851 1.28688,13.499516 1.61143,13.908443 8.38051,10.5591 4.10385,-2.030583 4.1869,-2.151697 4.1869,-6.10479 0,-1.889986 0.21918,-4.487475 0.48705,-5.7722 0.59691,-2.862851 2.68043,-7.384802 3.9192,-8.506041 0.90149,-0.815964 0.93469,-0.810271 2.10595,0.361164 1.01158,1.011724 1.10655,1.305159 0.63339,1.956829 -1.98158,2.72919 -3.17904,7.127298 -3.17904,11.676269 0,3.1974 -1.20633,3.262525 12.34037,-0.666192 17.26882,-5.00818 16.77659,-4.931704 31.57559,-4.905781 l 12.8447,0.02249 0.17735,-2.785534 c 0.11894,-1.868266 0.46375,-3.169212 1.04711,-3.950675 1.15652,-1.549266 5.3226,-3.899586 15.17561,-8.561428 15.44607,-7.308135 22.93745,-10.194833 26.61073,-10.254057 1.92683,-0.03107 2.30178,0.130567 3.60683,1.554845 0.80106,0.874235 1.7064,2.423838 2.01187,3.443564 1.26471,4.221861 -1.55459,6.380424 -20.99089,16.071422 -15.29544,7.62635 -19.46122,9.248444 -22.55846,8.783915 l -1.99834,-0.299715 0.37877,6.118196 c 0.58069,9.380038 0.39775,12.621154 -0.9549,16.917647 -5.91052,18.773916 -21.76615,32.638592 -42.92008,37.530702 -4.30997,0.99674 -17.43451,1.48982 -21.69559,0.81509 z M 302.69719,88.263886 c 0.32847,-0.531562 -2.368,-4.392988 -3.83006,-5.484738 -0.96908,-0.723641 -1.28645,-0.776404 -1.85106,-0.307746 -0.90984,0.755206 -0.86743,3.294254 0.0707,4.232509 1.51682,1.517048 5.03286,2.494675 5.61045,1.559975 z m 23.11047,-1.337412 c 2.75699,-0.480653 5.08749,-0.948721 5.17891,-1.040159 0.0914,-0.09143 -1.44403,-1.538055 -3.41209,-3.214711 -4.22409,-3.598635 -7.74254,-7.701406 -9.61045,-11.206527 -2.43877,-4.576261 -5.3446,-17.941311 -5.50994,-25.342266 -0.0487,-2.18193 -0.32855,-4.408903 -0.62179,-4.948829 -1.12533,-2.072036 -3.5005,-2.461893 -5.12152,-0.840634 -1.20667,1.206857 -1.37469,2.326404 -1.96028,13.062559 -0.2182,4.000204 -0.5415,7.633345 -0.71846,8.073649 -0.17695,0.440303 -1.38742,1.402075 -2.68992,2.13727 -2.83242,1.598764 -3.11215,2.368974 -2.40836,6.631239 1.64445,9.959007 6.06294,16.182364 12.45027,17.53599 2.59163,0.549231 8.35389,0.210618 14.42363,-0.847581 z m 17.28373,-4.835557 c 4.04348,-1.037766 11.40891,-3.949225 15.92139,-6.293504 6.35826,-3.303192 8.598,-6.107806 10.68113,-13.374911 2.10339,-7.337782 2.77855,-8.146039 6.80234,-8.143359 3.93264,0.0025 6.22092,1.882258 6.22092,5.11001 0,2.613151 2.72344,1.394888 4.60302,-2.059048 1.61975,-2.976456 1.31456,-4.133338 -1.42419,-5.398838 -1.88095,-0.869134 -2.78426,-0.958253 -9.56938,-0.944125 -9.5279,0.01984 -16.62297,1.266782 -31.7075,5.572518 -9.37365,2.675623 -10.72886,3.626378 -8.52041,5.977525 0.83105,0.884746 0.88131,1.105884 0.33054,1.454239 -1.17948,0.746004 -2.89361,0.452299 -3.955,-0.677656 -1.39189,-1.481834 -2.747,-1.401944 -6.98371,0.411721 -4.51483,1.932715 -5.79737,2.78606 -5.79737,3.857291 0,2.401008 8.36156,11.327275 12.51407,13.359215 4.41558,2.160665 6.20578,2.349644 10.88415,1.148922 z m 31.71658,-14.082115 c 2.41285,-1.5463 3.27395,-2.498893 4.1462,-4.586811 0.96344,-2.306166 0.88606,-4.594126 -0.17458,-5.161844 -1.48156,-0.793027 -3.04187,-0.535482 -3.80403,0.627896 -0.70212,1.071728 -3.26214,8.760013 -3.27166,9.825449 -0.008,0.875458 0.99289,0.648277 3.10407,-0.70469 z m 25.00942,-19.990578 c 0.82993,-0.830053 0.64668,-4.076602 -0.2958,-5.240693 -0.59644,-0.736663 -1.28229,-1.018579 -2.47806,-1.018579 -1.34983,0 -1.9337,0.305908 -3.18009,1.666176 -1.71699,1.873833 -1.65352,2.347257 0.22677,1.691682 1.54792,-0.539687 1.84962,-0.350419 2.83328,1.77739 0.78635,1.70101 1.88883,2.129231 2.8939,1.124024 z"
     id="path9546" />
  <path
     style="fill:#3179bd;fill-opacity:1;fill-rule:evenodd;stroke:#3179bd;stroke-width:0.75"
     d="m 315.03686,87.571017 c -2.37328,-1.908505 -6.29555,-6.739917 -6.29555,-7.75479 0,-0.834399 1.87948,-1.160602 3.09971,-0.537992 0.85409,0.435789 2.54499,2.043277 3.37925,3.212559 1.49166,2.090692 2.06321,3.996747 1.51602,5.055703 -0.39024,0.755205 -0.78374,0.760879 -1.69943,0.02451 z"
     id="path9622" />
  <path
     style="fill:#3179bd;fill-opacity:1;fill-rule:evenodd;stroke:#3179bd;stroke-width:0.75"
     d="m 334.97245,75.00524 c -0.50706,-0.355217 -0.87532,-1.434265 -0.75755,-2.219732 0.1073,-0.715999 0.67727,-1.523602 1.19007,-1.686383 0.88178,-0.27991 1.85153,0.778837 1.85153,2.021474 0,1.615329 -1.22529,2.62634 -2.28405,1.884641 z"
     id="path9700" />
  <path
     style="fill:#3179bd;fill-opacity:1;fill-rule:evenodd;stroke:#3179bd;stroke-width:0.75"
     d="m 320.63259,53.891926 c -0.99028,-0.6039 -1.10189,-1.449246 -0.28597,-2.165744 0.97386,-0.855189 2.47806,-0.787488 3.26419,0.146914 0.45853,0.545023 0.5072,1.010755 0.15774,1.509754 -0.57783,0.825095 -2.18891,1.086627 -3.13596,0.509076 z"
     id="path9739" />
  <path
     style="fill:#3179bd;fill-opacity:1;fill-rule:evenodd;stroke:#3179bd;stroke-width:0.75"
     d="m 322.81407,32.852967 c -0.96718,-0.589818 -1.07895,-1.346384 -0.31219,-2.113253 1.50471,-1.504945 4.61288,-0.05894 3.44816,1.604178 -0.57783,0.825096 -2.18891,1.086628 -3.13597,0.509075 z"
     id="path9778" />
  <path
     style="fill:#3179bd;fill-opacity:1;fill-rule:evenodd;stroke:#3179bd;stroke-width:0.75"
     d="m 310.61116,23.63228 c -1.19796,-0.356415 -1.71402,-1.347878 -1.71402,-3.293011 0,-1.778766 0.86127,-3.001501 2.774,-3.938214 1.77877,-0.871111 3.18825,-0.510428 3.97863,1.018121 0.42662,0.825079 0.43954,0.917135 0.37378,2.664112 -0.0755,2.006192 -0.32288,2.755134 -1.09686,3.321112 -0.36685,0.268254 -0.70459,0.325228 -2.10358,0.354849 -0.91662,0.01942 -1.91199,-0.03772 -2.21195,-0.126969 z"
     id="path9817" />
  <path
     style="fill:#3179bd;fill-opacity:1;fill-rule:evenodd;stroke:#3179bd;stroke-width:0.75"
     d="m 298.13353,30.519537 c -0.99232,-0.992462 -0.25992,-2.661338 1.16793,-2.661338 0.21854,0 0.62475,0.203213 0.90268,0.451584 0.41818,0.373706 0.50533,0.56459 0.50533,1.106857 0,0.542268 -0.0872,0.733153 -0.50533,1.106857 -0.69175,0.618166 -1.45003,0.616715 -2.07061,-0.004 z"
     id="path9856" />
  <path
     style="fill:#3179bd;fill-opacity:1;fill-rule:evenodd;stroke:#3179bd;stroke-width:0.75"
     d="m 332.74726,26.338719 c -1.26922,-1.028394 -0.19061,-5.338428 2.25651,-9.016768 1.83265,-2.754707 3.29984,-4.268945 4.13633,-4.268945 0.49381,0 1.93406,1.067652 2.08597,1.546311 0.12398,0.390681 -0.0945,0.814371 -0.93011,1.804339 -1.01312,1.200183 -1.69052,2.341912 -3.12177,5.261587 -1.39396,2.843612 -2.16391,4.01355 -3.02197,4.591883 -0.63121,0.42544 -0.95722,0.444373 -1.40496,0.08159 z"
     id="path9895" />
  <path
     style="fill:#3179bd;fill-opacity:1;fill-rule:evenodd;stroke:#3179bd;stroke-width:0.75"
     d="m 326.86952,7.4492251 c -0.70035,-0.1668998 -1.44715,-0.6359139 -1.82867,-1.1484649 -0.26297,-0.3533042 -0.32723,-0.6619651 -0.32449,-1.5584412 0.003,-0.9968058 0.0693,-1.2420099 0.61215,-2.263948 0.69538,-1.3092656 1.31009,-1.80810801 2.50812,-2.03534401 0.89063,-0.168929 2.61864,2.3e-5 3.2713,0.319841 0.8953,0.43871671 1.0794,0.91287641 1.13583,2.92543921 0.0776,2.7680804 -0.25379,3.3041752 -2.2858,3.6977014 -1.13923,0.2206281 -2.32597,0.2449195 -3.08843,0.063218 z"
     id="path9934" />
  <g
     inkscape:groupmode="layer"
     id="layer1"
     inkscape:label="Layer 1"
     transform="translate(-65.464239,-0.74392101)" />
  <g
     inkscape:groupmode="layer"
     id="layer2"
     inkscape:label="text"
     style="display:inline"
     transform="translate(-65.464239,-0.74392101)">
    <text
       xml:space="preserve"
       style="font-style:normal;font-weight:normal;font-size:117.175px;line-height:1.25;font-family:sans-serif;fill:#3179bd;fill-opacity:1;stroke:none;stroke-width:0.75"
       x="74.205788"
       y="110.31181"
       id="text18001"><tspan
         sodipodi:role="line"
         id="tspan17999"
         style="font-style:normal;font-variant:normal;font-weight:normal;font-stretch:normal;font-size:117.175px;font-family:Roboto;-inkscape-font-specification:Roboto;fill:#3179bd;fill-opacity:1;stroke-width:0.75"
         x="74.205788"
         y="110.31181">Tsiro</tspan></text>
  </g>
  <path
     style="fill:#d2e0ef;fill-opacity:1;fill-rule:evenodd;stroke:#d2e0ef;stroke-width:0.999998;stroke-opacity:1"
     d="m 415.00676,115.99737 c -6.29314,-1.91429 -10.4559,-6.34785 -13.28932,-14.15385 -0.98995,-2.727258 -1.99546,-7.052859 -2.23448,-9.612445 l -0.43458,-4.653793 3.13215,-1.977239 c 1.72269,-1.087481 3.43923,-2.72473 3.81455,-3.638331 0.37531,-0.913599 1.03628,-6.999307 1.46881,-13.523793 0.43253,-6.524486 1.14844,-12.53913 1.5909,-13.365875 1.1279,-2.107506 4.50627,-1.614234 5.74076,0.838201 0.51943,1.031901 0.9494,3.615616 0.95548,5.74159 0.0158,5.517756 2.59556,19.876667 4.85761,27.037324 2.39176,7.57126 6.35858,13.604611 13.16857,20.028811 2.88725,2.72369 5.24955,5.08571 5.24955,5.24893 0,0.25166 -3.036,0.74521 -14.07137,2.28753 -1.27253,0.17785 -1.68857,-0.13815 -1.68857,-1.28256 0,-2.15652 -3.34567,-7.59036 -5.57138,-9.0487 -2.22038,-1.45485 -6.16863,-1.62952 -6.64747,-0.29408 -0.46109,1.28594 0.65353,3.30486 4.14329,7.50473 3.04344,3.66274 3.0319,3.84193 -0.1845,2.86355 z"
     id="path45891"
     transform="scale(0.75)" />
  <path
     style="fill:#ffffff;fill-opacity:1;fill-rule:evenodd;stroke:none;stroke-width:1;stroke-opacity:1"
     d="m 400.59379,117.34462 c -1.27832,-0.34442 -2.96572,-1.20977 -3.77125,-1.93401 -0.79744,-0.71696 -1.0827,-1.47006 -1.07358,-2.83429 0.009,-1.3725 0.48774,-2.39708 1.11966,-2.39708 1.04837,0 4.26256,3.53136 5.7198,6.28423 0.38658,0.73027 0.44636,0.93406 0.30103,1.02613 -0.29296,0.18559 -1.30623,0.1216 -2.29566,-0.14498 z"
     id="path48694"
     transform="scale(0.75)" />
  <path
     style="fill:#ffffff;fill-opacity:1;fill-rule:evenodd;stroke:none;stroke-width:1;stroke-opacity:1"
     d="m 449.93355,109.7823 c -2.6168,-0.36385 -6.53819,-2.02882 -9.10087,-3.86409 -4.71192,-3.37446 -11.5186,-10.592809 -13.3695,-14.178074 -0.70242,-1.360618 -0.75885,-1.695193 -0.38178,-2.263389 0.44954,-0.677404 2.08302,-1.690823 4.5631,-2.830987 5.77482,-2.654839 8.47429,-3.419538 9.92767,-2.812278 0.24677,0.103111 0.79708,0.507279 1.2229,0.898154 0.98738,0.90635 1.51225,1.22387 2.48929,1.5059 1.85222,0.534655 4.32123,-0.316954 4.32123,-1.490477 0,-0.447264 -0.1904,-0.762977 -1.09191,-1.810483 -1.20323,-1.398097 -1.29829,-1.858415 -0.53325,-2.58228 1.14992,-1.088023 4.66668,-2.390989 12.38072,-4.587079 19.98158,-5.688506 29.22893,-7.244467 43.04057,-7.242014 6.43793,0.0011 8.69088,0.249402 10.75445,1.185068 3.25054,1.473868 3.6651,2.619013 2.0892,5.77105 -1.42452,2.849241 -3.45683,4.980701 -4.74901,4.980701 -0.429,0 -0.53621,-0.271233 -0.65554,-1.658327 -0.39489,-4.590521 -3.4456,-6.959763 -8.96476,-6.962228 -2.10865,-9.42e-4 -3.174,0.168434 -4.2035,0.668302 -2.10257,1.020882 -3.04002,2.909614 -5.40482,10.889328 -2.84654,9.605305 -5.80384,13.104637 -14.93492,17.672253 -5.69813,2.85037 -13.37176,5.90091 -18.88274,7.50659 -3.44598,1.00401 -6.6742,1.46053 -8.51653,1.20436 z m -1.48452,-9.06841 c 0.56078,-0.23477 1.34453,-1.114861 1.568,-1.760765 0.098,-0.283161 0.1798,-0.932737 0.18184,-1.443502 0.0111,-2.760532 -2.51171,-4.337452 -4.10958,-2.568799 -1.12439,1.244561 -1.34964,3.000118 -0.58004,4.520562 0.6118,1.208694 1.81744,1.722364 2.93978,1.252504 z"
     id="path48733"
     transform="scale(0.75)" />
  <path
     style="fill:#d2e0ef;fill-opacity:1;fill-rule:evenodd;stroke:none;stroke-width:1;stroke-opacity:1"
     d="m 530.75499,63.749403 c -0.27114,-0.238066 -0.75993,-1.005834 -1.23178,-1.934813 -1.24278,-2.446819 -1.87926,-2.844367 -3.7486,-2.341404 -0.5575,0.15 -1.12997,0.318055 -1.27214,0.373455 -0.23206,0.09043 -0.22544,0.05414 0.0648,-0.354737 0.72099,-1.01579 2.29277,-2.513178 3.00253,-2.860434 0.60736,-0.297153 0.89325,-0.352012 1.80861,-0.347049 1.35944,0.0074 2.05132,0.270153 2.72432,1.034727 0.75405,0.856643 1.01623,1.864431 1.01623,3.906282 0,1.857685 -0.15699,2.354912 -0.85799,2.71741 -0.5809,0.300397 -1.00565,0.245839 -1.50596,-0.193437 z"
     id="path48772"
     transform="scale(0.75)" />
  <path
     style="fill:#d2e0ef;fill-opacity:1;fill-rule:evenodd;stroke:none;stroke-width:1;stroke-opacity:1"
     d="m 496.23857,91.19289 c 0.24409,-1.470671 2.53788,-8.491214 3.6021,-11.024882 0.64635,-1.538815 1.09038,-2.069319 1.97687,-2.361888 0.67355,-0.222292 1.99395,-0.09833 2.67984,0.251587 0.85842,0.437933 1.02863,0.873118 1.0182,2.603314 -0.008,1.285611 -0.0601,1.609357 -0.43966,2.719657 -0.67969,1.988192 -1.4008,3.235197 -2.53653,4.386352 -1.38688,1.405719 -4.76589,3.603227 -6.01786,3.913656 l -0.37955,0.09411 z"
     id="path52943"
     transform="scale(0.75)" />
</svg>
