<?xml version="1.0" encoding="UTF-8" standalone="no"?>
<svg
   width="48.326027"
   height="48.35099"
   viewBox="0 0 48.326027 48.35099"
   fill="none"
   version="1.1"
   id="svg8"
   sodipodi:docname="logo_insta.svg"
   inkscape:version="1.1.1 (3bf5ae0d25, 2021-09-20)"
   xmlns:inkscape="http://www.inkscape.org/namespaces/inkscape"
   xmlns:sodipodi="http://sodipodi.sourceforge.net/DTD/sodipodi-0.dtd"
   xmlns="http://www.w3.org/2000/svg"
   xmlns:svg="http://www.w3.org/2000/svg">
  <defs
     id="defs12" />
  <sodipodi:namedview
     id="namedview10"
     pagecolor="#ffffff"
     bordercolor="#666666"
     borderopacity="1.0"
     inkscape:pageshadow="2"
     inkscape:pageopacity="0.0"
     inkscape:pagecheckerboard="0"
     showgrid="false"
     inkscape:zoom="2.4159482"
     inkscape:cx="-34.768958"
     inkscape:cy="-19.247102"
     inkscape:window-width="1264"
     inkscape:window-height="1001"
     inkscape:window-x="2646"
     inkscape:window-y="0"
     inkscape:window-maximized="0"
     inkscape:current-layer="svg8" />
  <path
     fill-rule="evenodd"
     clip-rule="evenodd"
     d="m 24.150845,0.14938224 c -13.2548,0 -23.99999962,10.74519976 -23.99999962,23.99999976 0,13.2548 10.74519962,24 23.99999962,24 13.2548,0 24,-10.7452 24,-24 0,-13.2548 -10.7452,-23.99999976 -24,-23.99999976 z m -5.2767,11.27729976 c 1.3653,-0.0621 1.8016,-0.0773 5.2779,-0.0773 h -0.004 c 3.4774,0 3.912,0.0152 5.2774,0.0773 1.3627,0.0624 2.2933,0.2782 3.1094,0.5947 0.8426,0.3267 1.5546,0.764 2.2666,1.476 0.7121,0.7115 1.1494,1.4256 1.4774,2.2675 0.3147,0.8139 0.5307,1.744 0.5947,3.1067 0.0613,1.3654 0.0773,1.8016 0.0773,5.2779 0,3.4763 -0.016,3.9115 -0.0773,5.2769 -0.064,1.3621 -0.28,2.2925 -0.5947,3.1067 -0.328,0.8416 -0.7653,1.5557 -1.4774,2.2672 -0.7112,0.712 -1.4242,1.1504 -2.2658,1.4774 -0.8145,0.3165 -1.7457,0.5322 -3.1083,0.5946 -1.3654,0.0622 -1.8003,0.0774 -5.2769,0.0774 -3.476,0 -3.912,-0.0152 -5.2774,-0.0774 -1.3624,-0.0624 -2.2928,-0.2781 -3.1072,-0.5946 -0.8414,-0.327 -1.5555,-0.7654 -2.2667,-1.4774 -0.7118,-0.7115 -1.1491,-1.4256 -1.4763,-2.2675 -0.3163,-0.8139 -0.532,-1.744 -0.5947,-3.1067 -0.0618,-1.3653 -0.0773,-1.8003 -0.0773,-5.2766 0,-3.4763 0.016,-3.9128 0.0771,-5.2782 0.0613,-1.3621 0.2773,-2.2925 0.5946,-3.1067 0.328,-0.8416 0.7654,-1.5557 1.4774,-2.2672 0.7115,-0.7117 1.4256,-1.1491 2.2675,-1.476 0.8139,-0.3165 1.744,-0.5323 3.1067,-0.5947 z"
     fill="#000000"
     id="path2" />
  <path
     fill-rule="evenodd"
     clip-rule="evenodd"
     d="m 23.003845,13.656082 c 0.2229,-3e-4 0.4628,-2e-4 0.7216,-10e-5 l 0.4267,10e-5 c 3.4176,0 3.8227,0.0123 5.1723,0.0736 1.248,0.0571 1.9253,0.2656 2.3765,0.4408 0.5974,0.232 1.0232,0.5094 1.471,0.9574 0.448,0.448 0.7253,0.8747 0.9579,1.472 0.1752,0.4507 0.384,1.128 0.4408,2.376 0.0613,1.3494 0.0746,1.7547 0.0746,5.1707 0,3.4161 -0.0133,3.8214 -0.0746,5.1708 -0.0571,1.248 -0.2656,1.9253 -0.4408,2.376 -0.232,0.5973 -0.5099,1.0227 -0.9579,1.4704 -0.448,0.448 -0.8734,0.7254 -1.471,0.9574 -0.4506,0.176 -1.1285,0.384 -2.3765,0.441 -1.3494,0.0614 -1.7547,0.0747 -5.1723,0.0747 -3.4179,0 -3.823,-0.0133 -5.1724,-0.0747 -1.248,-0.0576 -1.9253,-0.2661 -2.3768,-0.4413 -0.5973,-0.232 -1.024,-0.5094 -1.472,-0.9574 -0.448,-0.448 -0.7253,-0.8736 -0.9579,-1.4712 -0.1752,-0.4506 -0.384,-1.128 -0.4408,-2.376 -0.0613,-1.3493 -0.0736,-1.7547 -0.0736,-5.1729 0,-3.4181 0.0123,-3.8213 0.0736,-5.1707 0.0571,-1.248 0.2656,-1.9253 0.4408,-2.3765 0.232,-0.5974 0.5099,-1.024 0.9579,-1.472 0.448,-0.448 0.8747,-0.7254 1.472,-0.9579 0.4512,-0.176 1.1288,-0.384 2.3768,-0.4414 1.1808,-0.0533 1.6385,-0.0693 4.0241,-0.072 z m 7.9809,2.1254 c -0.848,0 -1.5361,0.6872 -1.5361,1.5355 0,0.848 0.6881,1.536 1.5361,1.536 0.848,0 1.536,-0.688 1.536,-1.536 0,-0.848 -0.688,-1.536 -1.536,-1.536 z m -13.406,8.3681 c 0,-3.6301 2.943,-6.5733 6.5731,-6.5734 3.6302,0 6.5726,2.9432 6.5726,6.5734 0,3.6302 -2.9422,6.5721 -6.5723,6.5721 -3.6302,0 -6.5734,-2.9419 -6.5734,-6.5721 z"
     fill="#000000"
     id="path4" />
  <path
     d="m 24.152045,19.882782 c 2.3563,0 4.2667,1.9102 4.2667,4.2667 0,2.3563 -1.9104,4.2667 -4.2667,4.2667 -2.3565,0 -4.2667,-1.9104 -4.2667,-4.2667 0,-2.3565 1.9102,-4.2667 4.2667,-4.2667 z"
     fill="#000000"
     id="path6" />
  <path
     style="fill:#94bcdc;fill-opacity:1;fill-rule:evenodd;stroke:#94bcdc;stroke-width:0.5;stroke-miterlimit:4;stroke-dasharray:none;stroke-opacity:1"
     d="m 22.916234,28.153409 c -1.511017,-0.48554 -2.614413,-1.756984 -2.908129,-3.351035 -0.320938,-1.741797 0.683303,-3.615466 2.387462,-4.454421 0.626261,-0.308307 0.744931,-0.330595 1.76024,-0.330595 1.01603,0 1.134114,0.02222 1.768941,0.332884 1.654909,0.809855 2.693136,2.739484 2.381372,4.425972 -0.474065,2.564452 -2.997882,4.145826 -5.389886,3.377195 z"
     id="path1404" />
  <path
     style="fill:#94bcdc;fill-opacity:1;fill-rule:evenodd;stroke:#94bcdc;stroke-width:0.5;stroke-miterlimit:4;stroke-dasharray:none;stroke-opacity:1"
     d="m 18.231024,34.443268 c -0.842287,-0.112589 -1.814335,-0.427483 -2.33364,-0.755982 -0.577845,-0.365531 -1.239678,-1.140264 -1.569039,-1.836698 -0.537045,-1.13558 -0.570255,-1.592104 -0.567247,-7.797548 0.0024,-4.914321 0.02607,-5.792464 0.173523,-6.431986 0.242739,-1.05281 0.622897,-1.788092 1.247544,-2.412937 0.606819,-0.60701 1.190344,-0.938178 2.100096,-1.191865 0.858757,-0.239468 5.057819,-0.351439 9.514437,-0.253711 3.70854,0.08132 4.323254,0.15482 5.250205,0.627715 0.699959,0.357093 1.571483,1.262742 1.882863,1.956588 0.600619,1.338358 0.620758,1.591734 0.620758,7.809676 0,4.957345 -0.0224,5.789146 -0.173658,6.449667 -0.468847,2.047324 -1.550251,3.189429 -3.51086,3.707932 -0.567281,0.150024 -1.406027,0.176408 -6.294107,0.197988 -3.101785,0.01369 -5.955178,-0.01728 -6.340875,-0.06884 z m 8.125014,-4.049105 c 1.97154,-0.738406 3.46859,-2.270989 4.071427,-4.168063 1.172025,-3.688261 -0.908694,-7.510473 -4.622092,-8.490631 -0.867928,-0.229091 -2.422643,-0.232067 -3.29558,-0.0063 -2.933354,0.758625 -4.970876,3.393147 -4.970876,6.427358 0,2.561774 1.534371,4.961135 3.837383,6.000677 1.05752,0.477347 1.565501,0.567652 2.988641,0.531291 1.077044,-0.02752 1.410221,-0.07677 1.991097,-0.294325 z m 5.354609,-11.698742 c 0.543847,-0.287593 0.829138,-0.779358 0.829138,-1.42921 0,-1.155324 -1.250926,-1.897499 -2.278153,-1.35163 -1.136619,0.604 -1.11054,2.295138 0.04348,2.819235 0.55937,0.254038 0.868509,0.245594 1.40554,-0.0384 z"
     id="path1443" />
  <path
     style="fill:#94bcdc;fill-opacity:1;fill-rule:evenodd;stroke:#94bcdc;stroke-width:0.5;stroke-miterlimit:4;stroke-dasharray:none;stroke-opacity:1"
     d="M 22.398839,48.040609 C 15.662,47.532063 9.1230824,43.972422 5.1046516,38.626039 1.8646006,34.315264 0.24759849,29.503774 0.25000267,24.180733 0.25245365,18.754063 1.7920575,14.145073 5.0908146,9.6891784 6.0558859,8.3855793 8.3553702,6.0823273 9.6802062,5.0922671 13.000294,2.61114 16.640453,1.0832232 20.757681,0.44261902 c 1.445335,-0.2248814 5.054691,-0.2554458 6.452933,-0.0546441 1.426815,0.20490517 3.181155,0.61715168 4.553078,1.06991288 1.54794,0.51085 4.225921,1.8179484 5.575899,2.7215457 4.919249,3.2926611 8.445001,8.1948295 9.939724,13.8200835 1.008734,3.796282 1.060818,7.9768 0.146327,11.744871 -1.487235,6.128006 -5.353703,11.44928 -10.750821,14.79595 -4.127955,2.559682 -9.449998,3.864572 -14.275982,3.500271 z m 5.691347,-11.101291 c 2.144649,-0.07301 2.793717,-0.130593 3.466548,-0.307548 2.85989,-0.752155 4.557986,-2.575281 5.203897,-5.587058 0.143627,-0.669706 0.168567,-1.650871 0.172461,-6.784713 0.0049,-6.418917 -0.01247,-6.690138 -0.527983,-8.260493 -0.528017,-1.608433 -1.779573,-3.039949 -3.310324,-3.786314 -1.113124,-0.542738 -2.041942,-0.727551 -4.280246,-0.851665 -2.319313,-0.128608 -10.007791,-0.05048 -11.123997,0.113036 -3.05197,0.447096 -5.183253,2.230809 -5.943493,4.974228 -0.377856,1.363537 -0.440733,2.732857 -0.392198,8.541225 0.0393,4.70356 0.07101,5.588532 0.224078,6.254818 0.657517,2.862044 2.368725,4.642829 5.180302,5.39093 1.278019,0.340054 6.303698,0.47469 11.330955,0.303554 z"
     id="path1482" />
</svg>
