<?xml version="1.0" encoding="UTF-8" standalone="no"?>
<svg
   width="20.342709"
   height="20.400818"
   viewBox="0 0 20.342709 20.400818"
   version="1.1"
   id="svg12"
   sodipodi:docname="logo_pt.svg"
   inkscape:version="1.1.1 (3bf5ae0d25, 2021-09-20)"
   xmlns:inkscape="http://www.inkscape.org/namespaces/inkscape"
   xmlns:sodipodi="http://sodipodi.sourceforge.net/DTD/sodipodi-0.dtd"
   xmlns="http://www.w3.org/2000/svg"
   xmlns:svg="http://www.w3.org/2000/svg">
  <sodipodi:namedview
     id="namedview14"
     pagecolor="#ffffff"
     bordercolor="#666666"
     borderopacity="1.0"
     inkscape:pageshadow="2"
     inkscape:pageopacity="0.0"
     inkscape:pagecheckerboard="0"
     showgrid="false"
     inkscape:zoom="16.4"
     inkscape:cx="0.06097561"
     inkscape:cy="13.262195"
     inkscape:window-width="1366"
     inkscape:window-height="705"
     inkscape:window-x="-8"
     inkscape:window-y="-8"
     inkscape:window-maximized="1"
     inkscape:current-layer="svg12" />
  <!-- Generator: Sketch 3.8.1 (29687) - http://www.bohemiancoding.com/sketch -->
  <title
     id="title2">pinterest [#180]</title>
  <desc
     id="desc4">Created with Sketch.</desc>
  <defs
     id="defs6" />
  <g
     id="Page-1"
     stroke="none"
     stroke-width="1"
     fill="none"
     fill-rule="evenodd"
     transform="translate(0.18806431,0.1980836)">
    <g
       id="Dribbble-Light-Preview"
       transform="translate(-220,-7399)"
       fill="#000000">
      <g
         id="icons"
         transform="translate(56,160)">
        <path
           d="m 173.876,7239 c -5.477,0 -9.876,4.4348 -9.876,9.9587 0,4.1 2.407,7.5305 5.893,9.1207 0,-1.8675 -0.013,-1.6265 1.41,-7.6989 -0.782,-1.5781 -0.174,-4.1838 1.577,-4.1838 2.43,0 0.779,3.6029 0.498,5.0207 -0.249,1.088 0.581,1.925 1.577,1.925 1.909,0 3.153,-2.4272 3.153,-5.2718 0,-2.176 -1.493,-3.7662 -4.066,-3.7662 -4.575,0 -5.735,5.0953 -4.149,6.6945 0.399,0.604 0,0.6323 0,1.4228 -0.277,0.836 -2.49,-0.3791 -2.49,-3.5141 0,-2.8456 2.324,-6.1924 7.054,-6.1924 3.734,0 6.224,2.7609 6.224,5.6902 0,3.9326 -2.158,6.7783 -5.311,6.7783 -1.079,0 -2.075,-0.5859 -2.407,-1.2555 -0.603,2.3455 -0.725,3.5344 -1.66,4.8533 0.913,0.2511 1.826,0.4185 2.822,0.4185 5.477,0 9.875,-4.4348 9.875,-9.9577 C 183.752,7243.4348 179.353,7239 173.876,7239"
           id="pinterest-[#180]" />
      </g>
    </g>
  </g>
  <path
     style="fill:#94bcdc;fill-opacity:1;fill-rule:evenodd;stroke:#94bcdc;stroke-width:0.5;stroke-miterlimit:4;stroke-dasharray:none;stroke-opacity:1"
     d="m 9.2124545,20.106186 c -0.386725,-0.05324 -1.5153402,-0.2952 -1.5947067,-0.34189 -0.021906,-0.01289 0.080023,-0.233742 0.226508,-0.49079 0.366992,-0.643987 0.5855853,-1.280833 0.9450902,-2.753408 0.1693244,-0.693571 0.321175,-1.306703 0.3374463,-1.362515 0.023134,-0.07935 0.089057,-0.0379 0.3023183,0.190097 0.6827374,0.729902 1.8667524,1.01797 3.1243294,0.760145 2.128487,-0.436378 3.681409,-2.25664 4.187292,-4.908151 0.140101,-0.734319 0.187286,-1.9414087 0.09939,-2.5425508 C 16.480969,6.2008797 14.498695,4.2483305 11.902638,3.7936796 11.240458,3.6777112 9.9472899,3.6796722 9.2124545,3.797759 7.6913759,4.0421938 6.4820667,4.6274392 5.4424494,5.6222534 4.3626536,6.6555147 3.710593,8.011747 3.5747537,9.5069062 c -0.050779,0.5589208 0.050603,1.4979138 0.2223115,2.0590218 0.3591643,1.173677 1.2179764,2.131968 1.9150852,2.136915 0.2050629,0.0015 0.390548,-0.155323 0.390548,-0.330104 0,-0.05963 0.044907,-0.294482 0.099794,-0.521883 C 6.322596,12.353248 6.2994289,12.242942 5.9880987,11.830068 5.001633,10.521854 5.4150257,8.0830507 6.8637875,6.6639586 7.8453381,5.7025093 8.9590143,5.303872 10.488466,5.3665152 c 1.828393,0.074887 3.051347,0.9125385 3.582089,2.4535196 0.155296,0.4508921 0.167697,0.5570165 0.163891,1.402439 -0.0078,1.7279532 -0.46875,3.1926222 -1.325607,4.2119222 -0.963843,1.14657 -2.6643,1.13968 -3.2061186,-0.01299 C 9.5035808,12.997754 9.5370661,12.578122 9.8584832,11.469411 10.261878,10.077922 10.380463,9.4858452 10.383829,8.8464391 10.388304,7.9965482 10.153303,7.598658 9.5478204,7.4309531 8.4520936,7.1274616 7.4648387,7.9121665 7.1968497,9.2995879 7.0945399,9.829261 7.1534161,10.772018 7.3176393,11.233724 c 0.1232719,0.346576 0.1252091,0.384869 0.038548,0.762195 -0.050185,0.218508 -0.2987513,1.289055 -0.5523696,2.378994 -0.5784103,2.485753 -0.6971536,3.135747 -0.7435434,4.070122 -0.020397,0.410823 -0.047417,0.746951 -0.060045,0.746951 -0.090519,0 -0.8460291,-0.433631 -1.39448,-0.800372 C 3.8419485,17.880871 2.7850401,16.889537 2.2565277,16.188149 1.2465694,14.847833 0.59898435,13.318869 0.33897833,11.66077 0.19599183,10.748922 0.2382919,8.9968214 0.42410779,8.1346427 1.2825744,4.1513915 4.2758266,1.1938136 8.2517594,0.40028336 9.2343936,0.20416586 10.897235,0.20404148 11.879048,0.40001202 c 2.040292,0.40724341 3.683263,1.29050558 5.173178,2.78110468 1.505154,1.5058454 2.430675,3.2281669 2.902383,5.4011132 0.118947,0.5479336 0.138855,0.8160738 0.138081,1.8597561 -8.3e-4,1.119439 -0.01493,1.279557 -0.171812,1.95122 -0.291166,1.24658 -0.716219,2.263102 -1.364071,3.262195 -1.470958,2.26846 -3.750039,3.811613 -6.394972,4.329998 -0.749397,0.146876 -2.2988914,0.210333 -2.9493805,0.120787 z"
     id="path905" />
</svg>
