<?xml version="1.0" encoding="UTF-8" standalone="no"?>
<svg
   width="18px"
   height="12px"
   viewBox="0 0 18 12"
   version="1.1"
   id="svg14"
   sodipodi:docname="menu-icon.svg"
   inkscape:version="1.1.1 (3bf5ae0d25, 2021-09-20)"
   xmlns:inkscape="http://www.inkscape.org/namespaces/inkscape"
   xmlns:sodipodi="http://sodipodi.sourceforge.net/DTD/sodipodi-0.dtd"
   xmlns="http://www.w3.org/2000/svg"
   xmlns:svg="http://www.w3.org/2000/svg">
  <defs
     id="defs18" />
  <sodipodi:namedview
     id="namedview16"
     pagecolor="#ffffff"
     bordercolor="#666666"
     borderopacity="1.0"
     inkscape:pageshadow="2"
     inkscape:pageopacity="0.0"
     inkscape:pagecheckerboard="0"
     showgrid="false"
     inkscape:zoom="32"
     inkscape:cx="0.5"
     inkscape:cy="2.453125"
     inkscape:window-width="2560"
     inkscape:window-height="1017"
     inkscape:window-x="1358"
     inkscape:window-y="-8"
     inkscape:window-maximized="1"
     inkscape:current-layer="svg14" />
  <!-- Generator: Sketch 52.5 (67469) - http://www.bohemiancoding.com/sketch -->
  <title
     id="title2">menu</title>
  <desc
     id="desc4">Created with Sketch.</desc>
  <g
     id="Icons"
     stroke="none"
     stroke-width="1"
     fill="none"
     fill-rule="evenodd">
    <g
       id="Rounded"
       transform="translate(-885.000000, -3438.000000)">
      <g
         id="Navigation"
         transform="translate(100.000000, 3378.000000)">
        <g
           id="-Round-/-Navigation-/-menu"
           transform="translate(782.000000, 54.000000)">
          <g
             transform="translate(0.000000, 0.000000)"
             id="g8">
            <polygon
               id="Path"
               points="0 0 24 0 24 24 0 24" />
            <path
               d="M4,18 L20,18 C20.55,18 21,17.55 21,17 C21,16.45 20.55,16 20,16 L4,16 C3.45,16 3,16.45 3,17 C3,17.55 3.45,18 4,18 Z M4,13 L20,13 C20.55,13 21,12.55 21,12 C21,11.45 20.55,11 20,11 L4,11 C3.45,11 3,11.45 3,12 C3,12.55 3.45,13 4,13 Z M3,7 C3,7.55 3.45,8 4,8 L20,8 C20.55,8 21,7.55 21,7 C21,6.45 20.55,6 20,6 L4,6 C3.45,6 3,6.45 3,7 Z"
               id="🔹-Icon-Color"
               fill="#1D1D1D" />
          </g>
        </g>
      </g>
    </g>
  </g>
  <path
     style="fill:#337abe;fill-opacity:1;fill-rule:evenodd;stroke:#337abe;stroke-width:0.1;stroke-miterlimit:4;stroke-dasharray:none;stroke-opacity:1"
     d="M 0.72888047,1.9395116 C 0.44110231,1.8492624 0.16896227,1.5961546 0.08047192,1.3364497 0.0172883,1.151016 0.0175257,0.84828728 0.08100083,0.66199803 0.14890292,0.46271634 0.37002759,0.2255148 0.58741834,0.11876138 L 0.765625,0.03125 H 9 17.234375 l 0.164691,0.07443112 c 0.206816,0.093469 0.451186,0.35455385 0.519493,0.55502629 0.06422,0.18846134 0.06422,0.49012379 0,0.67858519 -0.06831,0.2004724 -0.312677,0.4615572 -0.519493,0.5550263 l -0.164691,0.074431 -8.1875,0.00584 c -6.6739855,0.00476 -8.21162278,-0.00172 -8.31799453,-0.035081 z"
     id="path1213" />
  <path
     style="fill:#337abe;fill-opacity:1;fill-rule:evenodd;stroke:#337abe;stroke-width:0.1;stroke-miterlimit:4;stroke-dasharray:none;stroke-opacity:1"
     d="M 0.72888047,6.9395116 C 0.44110231,6.8492624 0.16896227,6.5961546 0.08047192,6.3364497 0.0172883,6.151016 0.0175257,5.8482873 0.08100083,5.661998 0.14890292,5.4627163 0.37002759,5.2255148 0.58741834,5.1187614 L 0.765625,5.03125 H 9 17.234375 l 0.164691,0.074431 c 0.206816,0.093469 0.451186,0.3545539 0.519493,0.5550263 0.06422,0.1884613 0.06422,0.4901238 0,0.6785852 -0.06831,0.2004724 -0.312677,0.4615572 -0.519493,0.5550263 l -0.164691,0.074431 -8.1875,0.00584 c -6.6739855,0.00476 -8.21162278,-0.00172 -8.31799453,-0.035081 z"
     id="path1252" />
  <path
     style="fill:#337abe;fill-opacity:1;fill-rule:evenodd;stroke:#337abe;stroke-width:0.1;stroke-miterlimit:4;stroke-dasharray:none;stroke-opacity:1"
     d="M 0.72888047,11.939512 C 0.44110231,11.849262 0.16896227,11.596155 0.08047192,11.33645 0.0172883,11.151016 0.0175257,10.848287 0.08100083,10.661998 0.14890292,10.462716 0.37002759,10.225515 0.58741834,10.118761 L 0.765625,10.03125 H 9 17.234375 l 0.164691,0.07443 c 0.206816,0.09347 0.451186,0.354554 0.519493,0.555026 0.06422,0.188462 0.06422,0.490124 0,0.678586 -0.06831,0.200472 -0.312677,0.461557 -0.519493,0.555026 l -0.164691,0.07443 -8.1875,0.0058 c -6.6739855,0.0048 -8.21162278,-0.0017 -8.31799453,-0.03508 z"
     id="path1291" />
</svg>
