<?xml version="1.0" encoding="UTF-8" standalone="no"?>
<svg
   width="32px"
   height="32px"
   viewBox="0 0 32 32"
   version="1.1"
   id="svg11"
   sodipodi:docname="recherche-icon_mod.svg"
   inkscape:version="1.1.1 (3bf5ae0d25, 2021-09-20)"
   xmlns:inkscape="http://www.inkscape.org/namespaces/inkscape"
   xmlns:sodipodi="http://sodipodi.sourceforge.net/DTD/sodipodi-0.dtd"
   xmlns="http://www.w3.org/2000/svg"
   xmlns:svg="http://www.w3.org/2000/svg"
   xmlns:sketch="http://www.bohemiancoding.com/sketch/ns">
  <sodipodi:namedview
     id="namedview13"
     pagecolor="#ffffff"
     bordercolor="#666666"
     borderopacity="1.0"
     inkscape:pageshadow="2"
     inkscape:pageopacity="0.0"
     inkscape:pagecheckerboard="0"
     showgrid="false"
     inkscape:zoom="16"
     inkscape:cx="22.0625"
     inkscape:cy="12.78125"
     inkscape:window-width="2560"
     inkscape:window-height="1017"
     inkscape:window-x="1358"
     inkscape:window-y="-8"
     inkscape:window-maximized="1"
     inkscape:current-layer="svg11" />
  <!-- Generator: Sketch 3.0.3 (7891) - http://www.bohemiancoding.com/sketch -->
  <title
     id="title2">icon 111 search</title>
  <desc
     id="desc4">Created with Sketch.</desc>
  <defs
     id="defs6" />
  <g
     id="Page-1"
     stroke="none"
     stroke-width="1"
     fill="none"
     fill-rule="evenodd"
     sketch:type="MSPage">
    <g
       id="icon-111-search"
       sketch:type="MSArtboardGroup"
       fill="#000000">
      <path
         d="M19.4271164,21.4271164 C18.0372495,22.4174803 16.3366522,23 14.5,23 C9.80557939,23 6,19.1944206 6,14.5 C6,9.80557939 9.80557939,6 14.5,6 C19.1944206,6 23,9.80557939 23,14.5 C23,16.3366522 22.4174803,18.0372495 21.4271164,19.4271164 L27.0119176,25.0119176 C27.5621186,25.5621186 27.5575313,26.4424687 27.0117185,26.9882815 L26.9882815,27.0117185 C26.4438648,27.5561352 25.5576204,27.5576204 25.0119176,27.0119176 L19.4271164,21.4271164 L19.4271164,21.4271164 Z M14.5,21 C18.0898511,21 21,18.0898511 21,14.5 C21,10.9101489 18.0898511,8 14.5,8 C10.9101489,8 8,10.9101489 8,14.5 C8,18.0898511 10.9101489,21 14.5,21 L14.5,21 Z"
         id="search"
         sketch:type="MSShapeGroup" />
    </g>
  </g>
  <path
     style="fill:#337abe;fill-rule:evenodd;stroke:#337abe;stroke-width:0.2;stroke-miterlimit:4;stroke-dasharray:none"
     d="m 25.512195,27.30738 c -0.188464,-0.06453 -0.633483,-0.487868 -3.146341,-2.99305 l -2.92683,-2.917888 -0.390244,0.24616 c -2.003967,1.264073 -4.501461,1.646829 -6.756097,1.035413 C 9.7622031,21.991796 7.6569522,20.125878 6.6560977,17.682219 6.1903384,16.545033 6.0244234,15.578128 6.0598994,14.207745 6.0851385,13.232798 6.1995444,12.584793 6.4963692,11.735543 7.5842961,8.6228569 10.335473,6.4372925 13.620029,6.0764323 c 3.088768,-0.33935 6.173637,1.1131103 7.918818,3.7284457 1.855103,2.780066 1.912573,6.354795 0.147325,9.1638 -0.149346,0.23765 -0.271538,0.44594 -0.271538,0.462864 0,0.01693 1.294214,1.326142 2.876031,2.909372 3.159929,3.16275 3.091503,3.081682 3.092812,3.664287 5.07e-4,0.226753 -0.03129,0.363205 -0.133167,0.571436 -0.323985,0.662202 -1.048585,0.96684 -1.738115,0.730743 z m -9.902439,-6.382872 c 2.317126,-0.375507 4.318937,-2.089738 5.067077,-4.339142 0.257269,-0.77352 0.321077,-1.186691 0.32017,-2.073171 -9.17e-4,-0.898255 -0.07263,-1.368891 -0.322117,-2.114111 C 19.939798,10.202388 18.042409,8.5512637 15.723867,8.0896649 15.120537,7.9695479 13.837558,7.969546 13.268293,8.0896613 10.89772,8.5898534 9.060841,10.200482 8.3168703,12.431213 8.0539317,13.219611 7.9837464,13.750638 8.0134992,14.72654 c 0.020664,0.677791 0.049219,0.928725 0.1521097,1.336709 0.3040582,1.205655 0.8407852,2.147096 1.7324156,3.038727 1.0058305,1.00583 2.0723055,1.563487 3.4922195,1.826072 0.482463,0.08922 1.658685,0.08735 2.219512,-0.0035 z"
     id="path901" />
</svg>
